<?xml version="1.0" standalone="no"?>
<!DOCTYPE svg PUBLIC "-//W3C//DTD SVG 20010904//EN"
 "http://www.w3.org/TR/2001/REC-SVG-20010904/DTD/svg10.dtd">
<svg version="1.0" xmlns="http://www.w3.org/2000/svg"
 width="1000.000000pt" height="1000.000000pt" viewBox="0 0 1000.000000 1000.000000"
 preserveAspectRatio="xMidYMid meet">

<g transform="translate(0.000000,1000.000000) scale(0.100000,-0.100000)"
fill="#000000" stroke="none">
<path d="M5996 7796 c-71 -264 -144 -535 -161 -601 l-32 -120 481 -129 c264
-71 535 -144 601 -161 l120 -32 129 481 c71 264 144 535 161 601 l32 120 -481
129 c-264 71 -535 144 -601 161 l-120 32 -129 -481z"/>
<path d="M3265 8113 c-319 -86 -582 -158 -584 -160 -4 -3 308 -1184 316 -1192
3 -4 1183 308 1192 316 3 2 -67 271 -155 598 -122 456 -162 595 -174 594 -8 0
-276 -71 -595 -156z"/>
<path d="M2810 5835 l0 -625 315 0 315 0 0 625 0 625 -315 0 -315 0 0 -625z"/>
<path d="M4690 5835 l0 -625 1250 0 1250 0 0 625 0 625 -1250 0 -1250 0 0
-625z"/>
<path d="M2810 4155 l0 -625 625 0 625 0 0 625 0 625 -625 0 -625 0 0 -625z"/>
<path d="M5940 4155 l0 -625 625 0 625 0 0 625 0 625 -625 0 -625 0 0 -625z"/>
<path d="M2810 2475 l0 -625 625 0 625 0 0 625 0 625 -625 0 -625 0 0 -625z"/>
<path d="M5940 2475 l0 -625 625 0 625 0 0 625 0 625 -625 0 -625 0 0 -625z"/>
</g>
</svg>
