<?xml version="1.0" encoding="UTF-8"?>
<svg xmlns="http://www.w3.org/2000/svg" xmlns:xlink="http://www.w3.org/1999/xlink" viewBox="0 0 1450.08 1243.56">
  <defs>
    <style>
      .cls-1 {
        fill: url(#linear-gradient);
      }

      .cls-2 {
        fill: #02060d;
      }

      .cls-3 {
        fill: #f5f5f5;
      }

      .cls-4 {
        fill: #d1daf0;
      }

      .cls-5 {
        fill: #dbe4ec;
      }

      .cls-6 {
        fill: #d9f2ff;
      }

      .cls-7 {
        fill: #15ace3;
      }

      .cls-8 {
        fill: #244ec6;
      }

      .cls-9 {
        fill: #13699b;
      }

      .cls-10 {
        fill: #154489;
      }

      .cls-11 {
        fill: #111314;
      }

      .cls-12 {
        fill: #2a1c51;
      }

      .cls-13 {
        fill: #2a5da8;
      }

      .cls-14 {
        fill: #515151;
      }

      .cls-15, .cls-16 {
        mix-blend-mode: multiply;
      }

      .cls-17 {
        mix-blend-mode: overlay;
      }

      .cls-18 {
        mix-blend-mode: screen;
      }

      .cls-19 {
        fill: url(#linear-gradient-8);
      }

      .cls-20 {
        fill: url(#linear-gradient-9);
      }

      .cls-21 {
        fill: url(#linear-gradient-3);
      }

      .cls-22 {
        fill: url(#linear-gradient-4);
      }

      .cls-23 {
        fill: url(#linear-gradient-2);
      }

      .cls-24 {
        fill: url(#linear-gradient-6);
      }

      .cls-25 {
        fill: url(#linear-gradient-7);
      }

      .cls-26 {
        fill: url(#linear-gradient-5);
      }

      .cls-27 {
        fill: url(#linear-gradient-50);
      }

      .cls-28 {
        fill: url(#linear-gradient-41);
      }

      .cls-29 {
        fill: url(#linear-gradient-40);
      }

      .cls-30 {
        fill: url(#linear-gradient-43);
      }

      .cls-31 {
        fill: url(#linear-gradient-42);
      }

      .cls-32 {
        fill: url(#linear-gradient-45);
      }

      .cls-33 {
        fill: url(#linear-gradient-46);
      }

      .cls-34 {
        fill: url(#linear-gradient-44);
      }

      .cls-35 {
        fill: url(#linear-gradient-49);
      }

      .cls-36 {
        fill: url(#linear-gradient-47);
      }

      .cls-37 {
        fill: url(#linear-gradient-48);
      }

      .cls-38 {
        fill: url(#linear-gradient-14);
      }

      .cls-39 {
        fill: url(#linear-gradient-18);
      }

      .cls-40 {
        fill: url(#linear-gradient-22);
      }

      .cls-41 {
        fill: url(#linear-gradient-20);
      }

      .cls-42 {
        fill: url(#linear-gradient-21);
      }

      .cls-43 {
        fill: url(#linear-gradient-23);
      }

      .cls-44 {
        fill: url(#linear-gradient-15);
      }

      .cls-45 {
        fill: url(#linear-gradient-16);
      }

      .cls-46 {
        fill: url(#linear-gradient-17);
      }

      .cls-47 {
        fill: url(#linear-gradient-13);
      }

      .cls-48 {
        fill: url(#linear-gradient-12);
      }

      .cls-49 {
        fill: url(#linear-gradient-10);
      }

      .cls-50 {
        fill: url(#linear-gradient-11);
      }

      .cls-51 {
        fill: url(#linear-gradient-27);
      }

      .cls-52 {
        fill: url(#linear-gradient-24);
      }

      .cls-53 {
        fill: url(#linear-gradient-26);
      }

      .cls-54 {
        fill: url(#linear-gradient-38);
      }

      .cls-55 {
        fill: url(#linear-gradient-35);
      }

      .cls-56 {
        fill: url(#linear-gradient-37);
      }

      .cls-57 {
        fill: url(#linear-gradient-34);
      }

      .cls-58 {
        fill: url(#linear-gradient-39);
      }

      .cls-59 {
        fill: url(#linear-gradient-36);
      }

      .cls-60 {
        fill: url(#linear-gradient-25);
      }

      .cls-61 {
        fill: url(#linear-gradient-28);
      }

      .cls-62 {
        fill: url(#linear-gradient-29);
      }

      .cls-63 {
        fill: url(#linear-gradient-33);
      }

      .cls-64 {
        fill: url(#linear-gradient-30);
      }

      .cls-65 {
        fill: url(#linear-gradient-32);
      }

      .cls-66 {
        fill: url(#linear-gradient-31);
      }

      .cls-67 {
        isolation: isolate;
      }

      .cls-16 {
        fill: url(#linear-gradient-19);
      }
    </style>
    <linearGradient id="linear-gradient" x1="1230.96" y1="520.81" x2="1411.24" y2="800.47" gradientUnits="userSpaceOnUse">
      <stop offset="0" stop-color="#12c2e9"/>
      <stop offset=".21" stop-color="#2c99e5"/>
      <stop offset=".59" stop-color="#5757e0"/>
      <stop offset=".86" stop-color="#722ddd"/>
      <stop offset="1" stop-color="#7d1edc"/>
    </linearGradient>
    <linearGradient id="linear-gradient-2" x1="1192.68" y1="666.84" x2="1431.22" y2="666.84" gradientUnits="userSpaceOnUse">
      <stop offset="0" stop-color="#c9f9ff"/>
      <stop offset=".14" stop-color="#c2f7ff"/>
      <stop offset=".33" stop-color="#b0f3ff"/>
      <stop offset=".55" stop-color="#92edff"/>
      <stop offset=".8" stop-color="#69e5ff"/>
      <stop offset="1" stop-color="#43ddff"/>
    </linearGradient>
    <linearGradient id="linear-gradient-3" x1="670.04" y1="985.25" x2="801.73" y2="798.52" xlink:href="#linear-gradient-2"/>
    <linearGradient id="linear-gradient-4" x1="768.03" y1="847.81" x2="877.41" y2="847.81" gradientUnits="userSpaceOnUse">
      <stop offset="0" stop-color="#12c2e9"/>
      <stop offset="1" stop-color="#7d1edc"/>
    </linearGradient>
    <linearGradient id="linear-gradient-5" x1="1072.59" y1="921.97" x2="1091.78" y2="921.97" xlink:href="#linear-gradient-4"/>
    <linearGradient id="linear-gradient-6" x1="496.96" y1="753.78" x2="1079.35" y2="753.78" xlink:href="#linear-gradient-2"/>
    <linearGradient id="linear-gradient-7" x1="868.42" y1="565.73" x2="1012.75" y2="648.44" xlink:href="#linear-gradient-4"/>
    <linearGradient id="linear-gradient-8" x1="496.96" y1="531.85" x2="1227.56" y2="531.85" xlink:href="#linear-gradient-4"/>
    <linearGradient id="linear-gradient-9" x1="1014.69" y1="487.78" x2="522.1" y2="564.55" xlink:href="#linear-gradient-2"/>
    <linearGradient id="linear-gradient-10" x1="820.05" y1="1210.26" x2="930.99" y2="1210.26" xlink:href="#linear-gradient-4"/>
    <linearGradient id="linear-gradient-11" x1="774.57" y1="1206.93" x2="933.49" y2="1206.93" gradientUnits="userSpaceOnUse">
      <stop offset="0" stop-color="#7d1edc"/>
      <stop offset="1" stop-color="#12c2e9"/>
    </linearGradient>
    <linearGradient id="linear-gradient-12" x1="875.02" y1="1143.19" x2="819.32" y2="1265.73" xlink:href="#linear-gradient-2"/>
    <linearGradient id="linear-gradient-13" x1="683.15" y1="1100.04" x2="682.41" y2="1079.92" xlink:href="#linear-gradient-4"/>
    <linearGradient id="linear-gradient-14" x1="763.44" y1="1321.94" x2="470.6" y2="739.22" xlink:href="#linear-gradient-2"/>
    <linearGradient id="linear-gradient-15" x1="281.91" y1="1058.98" x2="698.58" y2="1058.98" xlink:href="#linear-gradient-4"/>
    <linearGradient id="linear-gradient-16" x1="959.59" y1="1000.35" x2="482.55" y2="1365.63" xlink:href="#linear-gradient-4"/>
    <linearGradient id="linear-gradient-17" x1="960.94" y1="913.97" x2="1233.08" y2="913.97" xlink:href="#linear-gradient-4"/>
    <linearGradient id="linear-gradient-18" x1="960.94" y1="820.26" x2="1233.08" y2="820.26" gradientUnits="userSpaceOnUse">
      <stop offset="0" stop-color="#43ddff"/>
      <stop offset=".2" stop-color="#69e5ff"/>
      <stop offset=".45" stop-color="#92edff"/>
      <stop offset=".67" stop-color="#b0f3ff"/>
      <stop offset=".86" stop-color="#c2f7ff"/>
      <stop offset="1" stop-color="#c9f9ff"/>
    </linearGradient>
    <linearGradient id="linear-gradient-19" x1="399.07" y1="711.92" x2="431.48" y2="758.13" gradientUnits="userSpaceOnUse">
      <stop offset="0" stop-color="#e8e8e8"/>
      <stop offset=".24" stop-color="#e1e1e1"/>
      <stop offset=".56" stop-color="#cfcfcf"/>
      <stop offset=".95" stop-color="#b1b1b1"/>
      <stop offset="1" stop-color="#adadad"/>
    </linearGradient>
    <linearGradient id="linear-gradient-20" x1="184.89" y1="805.85" x2="203.75" y2="805.85" xlink:href="#linear-gradient-4"/>
    <linearGradient id="linear-gradient-21" x1="0" y1="719.56" x2="468.19" y2="719.56" gradientUnits="userSpaceOnUse">
      <stop offset="0" stop-color="#fff"/>
      <stop offset=".38" stop-color="#f8fdff"/>
      <stop offset=".92" stop-color="#e6faff"/>
      <stop offset="1" stop-color="#e3faff"/>
    </linearGradient>
    <linearGradient id="linear-gradient-22" x1="342.21" y1="599.25" x2="181.68" y2="896.95" xlink:href="#linear-gradient-2"/>
    <linearGradient id="linear-gradient-23" x1="325.85" y1="589.44" x2="165.32" y2="887.14" xlink:href="#linear-gradient-2"/>
    <linearGradient id="linear-gradient-24" x1="309.48" y1="579.65" x2="148.97" y2="877.31" xlink:href="#linear-gradient-2"/>
    <linearGradient id="linear-gradient-25" x1="293.13" y1="569.82" x2="132.6" y2="867.52" xlink:href="#linear-gradient-2"/>
    <linearGradient id="linear-gradient-26" x1="404.83" y1="667.4" x2="447.21" y2="727.81" xlink:href="#linear-gradient-2"/>
    <linearGradient id="linear-gradient-27" x1="368.91" y1="180.24" x2="776.3" y2="180.24" xlink:href="#linear-gradient-18"/>
    <linearGradient id="linear-gradient-28" x1="368.91" y1="86.43" x2="641.34" y2="86.43" xlink:href="#linear-gradient"/>
    <linearGradient id="linear-gradient-29" x1="537.81" y1="166.39" x2="644.88" y2="377.6" xlink:href="#linear-gradient"/>
    <linearGradient id="linear-gradient-30" x1="514" y1="93.57" x2="588.7" y2="222.48" xlink:href="#linear-gradient"/>
    <linearGradient id="linear-gradient-31" x1="398.22" y1="151.37" x2="485.44" y2="281.44" xlink:href="#linear-gradient"/>
    <linearGradient id="linear-gradient-32" x1="401.51" y1="149.1" x2="488.76" y2="279.2" xlink:href="#linear-gradient"/>
    <linearGradient id="linear-gradient-33" x1="407.61" y1="145.04" x2="494.86" y2="275.15" xlink:href="#linear-gradient"/>
    <linearGradient id="linear-gradient-34" x1="409.81" y1="143.62" x2="497.04" y2="273.7" xlink:href="#linear-gradient"/>
    <linearGradient id="linear-gradient-35" x1="415.18" y1="139.93" x2="502.43" y2="270.04" xlink:href="#linear-gradient"/>
    <linearGradient id="linear-gradient-36" x1="399.83" y1="150.34" x2="487.06" y2="280.41" xlink:href="#linear-gradient"/>
    <linearGradient id="linear-gradient-37" x1="414.72" y1="140.24" x2="501.92" y2="270.27" xlink:href="#linear-gradient"/>
    <linearGradient id="linear-gradient-38" x1="391.62" y1="155.83" x2="478.91" y2="285.99" xlink:href="#linear-gradient"/>
    <linearGradient id="linear-gradient-39" x1="492.2" y1="198.41" x2="617.36" y2="304.85" xlink:href="#linear-gradient"/>
    <linearGradient id="linear-gradient-40" x1="486.51" y1="205.17" x2="611.69" y2="311.63" xlink:href="#linear-gradient"/>
    <linearGradient id="linear-gradient-41" x1="489.03" y1="202.17" x2="614.18" y2="308.61" xlink:href="#linear-gradient"/>
    <linearGradient id="linear-gradient-42" x1="484.1" y1="208.03" x2="609.28" y2="314.48" xlink:href="#linear-gradient"/>
    <linearGradient id="linear-gradient-43" x1="480.81" y1="212.02" x2="605.93" y2="318.43" xlink:href="#linear-gradient"/>
    <linearGradient id="linear-gradient-44" x1="489.51" y1="201.65" x2="614.66" y2="308.08" xlink:href="#linear-gradient"/>
    <linearGradient id="linear-gradient-45" x1="484.98" y1="207.03" x2="610.15" y2="313.48" xlink:href="#linear-gradient"/>
    <linearGradient id="linear-gradient-46" x1="494.77" y1="195.3" x2="619.98" y2="301.78" xlink:href="#linear-gradient"/>
    <linearGradient id="linear-gradient-47" x1="184.21" y1="394.68" x2="549.38" y2="394.68" xlink:href="#linear-gradient-18"/>
    <linearGradient id="linear-gradient-48" x1="184.21" y1="300.88" x2="456.64" y2="300.88" xlink:href="#linear-gradient-4"/>
    <linearGradient id="linear-gradient-49" x1="205.95" y1="381.88" x2="432.7" y2="381.88" xlink:href="#linear-gradient"/>
    <linearGradient id="linear-gradient-50" x1="212.02" y1="269.36" x2="225.85" y2="269.36" xlink:href="#linear-gradient-2"/>
  </defs>
  <g class="cls-67">
    <g id="Layer_1" data-name="Layer 1">
      <g>
        <path class="cls-1" d="m1331.21,516.43c-33.14-19.4-63.18-21.2-84.86-8.42l-18.87,11.52c.08-.04.15-.08.22-.12-21.54,12.56-34.9,39.42-35.01,77.65-.21,76.71,53.01,170.14,118.88,208.68,33.55,19.63,63.91,21.22,85.65,7.93-.26.16-.53.33-.79.49,11.97-7.05,6.9-4.48,18.87-11.53,21.41-12.61,34.68-39.42,34.79-77.53.21-76.71-53.01-170.13-118.87-208.67Z"/>
        <path class="cls-23" d="m1312.34,527.95c65.87,38.54,119.09,131.97,118.88,208.68-.21,76.71-53.78,107.65-119.65,69.11-65.87-38.54-119.09-131.97-118.88-208.68.21-76.71,53.79-107.65,119.65-69.1Z"/>
        <g class="cls-17">
          <path class="cls-2" d="m1362.76,588.11c.69.41,1.39,1.02,2.04,1.83,1.95,2.47,2.61,5.77,1.48,7.4-.76,1.09-2.14,1.14-3.56.31-.7-.41-1.4-1.03-2.04-1.84-1.96-2.46-2.62-5.78-1.49-7.39.76-1.09,2.15-1.14,3.56-.31Z"/>
          <path class="cls-2" d="m1400.12,653.71c1.41.83,2.79,2.49,3.55,4.47,1.13,2.94.45,5.47-1.52,5.64-.64.06-1.35-.15-2.05-.56-1.42-.83-2.79-2.49-3.54-4.46-1.13-2.94-.45-5.47,1.52-5.65.64-.05,1.35.16,2.04.56Z"/>
          <path class="cls-2" d="m1413.7,715.42c5.1,2.99,9.23,10.22,9.21,16.17-.02,5.94-4.17,8.33-9.27,5.35-5.1-2.99-9.22-10.23-9.21-16.17.02-5.95,4.16-8.34,9.27-5.36Z"/>
          <path class="cls-2" d="m1399.79,773.03c.7.41,1.41,1.03,2.04,1.84,1.95,2.45,2.62,5.77,1.48,7.39-.76,1.08-2.14,1.14-3.55.31-.7-.41-1.41-1.02-2.04-1.84-1.95-2.46-2.62-5.78-1.48-7.39.76-1.08,2.14-1.13,3.56-.31Z"/>
          <path class="cls-2" d="m1362.17,794.75c1.42.83,2.79,2.49,3.55,4.46,1.12,2.95.44,5.48-1.52,5.65-.65.06-1.35-.15-2.04-.56-1.42-.83-2.8-2.49-3.55-4.47-1.12-2.94-.44-5.46,1.52-5.64.64-.05,1.35.15,2.04.55Z"/>
          <path class="cls-2" d="m1310.92,774.78c5.1,2.98,9.22,10.21,9.21,16.16-.02,5.94-4.17,8.34-9.27,5.35-5.11-2.99-9.23-10.23-9.21-16.17.02-5.94,4.17-8.34,9.27-5.35Z"/>
          <path class="cls-2" d="m1259.73,734.81c.7.41,1.4,1.02,2.05,1.84,1.95,2.46,2.61,5.78,1.48,7.39-.76,1.08-2.15,1.14-3.56.31-.69-.41-1.39-1.03-2.04-1.83-1.96-2.47-2.62-5.78-1.49-7.4.76-1.09,2.14-1.14,3.56-.31Z"/>
          <path class="cls-2" d="m1222.34,669.19c1.42.83,2.79,2.49,3.55,4.47,1.13,2.94.45,5.47-1.52,5.64-.65.06-1.35-.15-2.05-.55-1.41-.83-2.79-2.49-3.54-4.46-1.13-2.95-.45-5.47,1.52-5.64.65-.06,1.35.15,2.04.55Z"/>
          <path class="cls-2" d="m1208.81,595.53c5.1,2.99,9.23,10.22,9.21,16.16-.02,5.94-4.17,8.34-9.27,5.35-5.11-2.99-9.23-10.23-9.21-16.17.02-5.95,4.16-8.34,9.27-5.35Z"/>
          <path class="cls-2" d="m1222.68,549.89c.7.41,1.4,1.03,2.04,1.84,1.96,2.46,2.62,5.77,1.49,7.39-.76,1.08-2.14,1.14-3.56.31-.7-.41-1.4-1.03-2.04-1.84-1.96-2.46-2.63-5.78-1.49-7.39.76-1.08,2.14-1.14,3.56-.31Z"/>
          <path class="cls-2" d="m1260.3,528.15c1.42.83,2.79,2.49,3.55,4.47,1.12,2.94.45,5.47-1.52,5.64-.65.06-1.36-.15-2.05-.56-1.42-.83-2.79-2.49-3.55-4.46-1.12-2.95-.44-5.47,1.52-5.64.65-.06,1.35.15,2.04.56Z"/>
          <path class="cls-2" d="m1311.59,536.17c5.1,2.98,9.22,10.22,9.2,16.16-.02,5.94-4.17,8.34-9.27,5.35-5.11-2.99-9.23-10.23-9.22-16.17.02-5.94,4.17-8.34,9.28-5.35Z"/>
        </g>
        <g>
          <path class="cls-10" d="m1349.99,646.59c3.42,6.01,3.4,12.49-.04,14.47l-38.38,22.17c-1.73.99-3.97.67-6.22-.64-2.25-1.31-4.5-3.63-6.21-6.63-1.77-3.1-2.62-6.33-2.55-9,.06-2.5.93-4.52,2.6-5.48l4.57-2.64,33.81-19.53c1.72-.99,3.98-.67,6.22.64,2.25,1.32,4.49,3.63,6.2,6.63Zm-44.46,28.44c1.14.66,2.05.13,2.06-1.19,0-1.32-.91-2.92-2.04-3.58-1.14-.66-2.06-.13-2.06,1.19,0,1.31.91,2.92,2.04,3.58"/>
          <path class="cls-13" d="m1243.6,556.28c1.6.94,3.2,2.58,4.42,4.72l55.74,97.85-4.57,2.64c-1.67.96-2.53,2.98-2.6,5.48l-57.44-100.84c-2.43-4.27-2.42-8.88.03-10.3,1.22-.71,2.82-.48,4.42.45Z"/>
          <path class="cls-3" d="m1305.55,668.17c2.13,1.24,3.84,4.25,3.83,6.72,0,2.47-1.73,3.46-3.85,2.22-2.12-1.24-3.84-4.25-3.83-6.72,0-2.47,1.73-3.47,3.85-2.23Z"/>
        </g>
      </g>
      <g>
        <g>
          <path class="cls-21" d="m854.49,831.92l-122.24-72.6c6.73,3.84,10.67,12.58,10.59,23.57-.05,7.22-5.1,16.14-11.4,19.64l-66.9,38.84c-3.35,1.89-6.2,6.81-6.2,10.85,0,1.89.66,3.38,1.81,4l122.13,72.55c-1.03-.6-1.78-2.08-1.78-3.97,0-4,2.81-8.85,6.19-10.77l66.95-38.93c6.34-3.52,11.25-12.37,11.25-19.6.08-11.11-3.71-19.7-10.41-23.58Z"/>
          <polygon class="cls-5" points="776.88 766.38 654.56 693.73 645.92 709.05 768.03 781.58 776.88 766.38"/>
          <polygon class="cls-5" points="863.17 816.67 740.97 744.09 654.56 693.73 776.88 766.38 863.17 816.67"/>
          <path class="cls-22" d="m776.88,766.38l-8.85,15.2,86.46,50.34c6.7,3.88,10.48,12.47,10.41,23.58,0,7.23-4.9,16.08-11.25,19.6l-66.95,38.93c-3.38,1.92-6.19,6.78-6.19,10.77.06,3.96,2.81,5.58,6.19,3.62l66.95-38.89c13.02-7.56,23.7-26.06,23.76-41.27,0-14.81-5.15-26.33-14.23-31.59l-86.3-50.29Z"/>
          <path class="cls-5" d="m516.02,161.17l-12.31,7.22c4.31-2.57,10.1-2.14,16.61,1.63l12.15-7.08c-6.39-3.84-12.15-4.15-16.45-1.77Z"/>
          <path class="cls-26" d="m1091.64,932.3l.13-42.81-12.29,7.3-.14,42.62v-.09c0,7.41-2.62,12.66-6.76,15.12l12.28-7.26c4.17-2.41,6.81-7.58,6.81-14.93l-.04.04Z"/>
          <path class="cls-24" d="m1079.35,896.82l-582.38-345.21v42.55c-.19,14.87,7.65,33.01,20.35,40.5l207.5,122.47,125.4,74.02,205.93,121.58c12.74,7.51,23.21,1.54,23.21-13.39v-42.51Z"/>
          <polygon class="cls-5" points="1054.67 848.26 1066.92 841.06 1069.18 504.83 1056.96 511.95 1054.67 848.26"/>
          <polygon class="cls-5" points="1056.96 511.95 1069.18 504.83 536.6 190.34 524.36 197.49 1056.96 511.95"/>
          <path class="cls-25" d="m1091.78,521.48c.04-13.86-7.38-32.76-20.71-40.65L532.47,162.94c-6.39-3.84-12.15-4.15-16.45-1.77l-12.31,7.22c4.31-2.57,10.1-2.14,16.61,1.63l538.48,317.97c12.13,7.23,20.8,25.58,20.69,40.6l-.14,368.29,12.43-7.36v-368.04Z"/>
          <path class="cls-19" d="m1058.79,487.99c12.81,7.69,20.8,25.75,20.69,40.6v368.3l-582.52-345.29V183.37c.14-14.89,10.61-20.82,23.35-13.35l538.48,317.97Z"/>
          <polygon class="cls-20" points="524.36 533.7 1054.67 848.26 1054.67 511.95 524.36 197.49 524.36 533.7"/>
        </g>
        <g>
          <path class="cls-5" d="m823.13,1162.51c22.69-13.17,43.76-16.08,55.61-15.8l52.25,31.06c-11.81-.27-32.75,2.77-55.45,15.79-16.91,9.94-32.8,24.18-45.35,37.45-6.04,6.25-15.51,7.85-23,3.48l-23.35-13.89c-6.63-4-9.98-15.28-4.66-20.93,12.47-13.16,27.12-27.38,43.96-37.16Z"/>
          <path class="cls-49" d="m875.54,1193.56c-21.88,12.68-42.07,33.03-55.49,48.58l1.2.37c2.76,1.1,8.81-1.77,14.19-5.1,2.81-1.46,5.51-3.25,7.36-4.28l65.47-37.94c1.91-1.13,4.6-2.61,7.42-4.15,5.39-3.15,11.45-7.2,14.31-11.57l1.01-1.69c-11.81-.27-32.75,2.77-55.45,15.79Z"/>
          <path class="cls-50" d="m930.55,1170.3c4.44,2.7,3.47,8.46-.41,9.91-2.07.92-11.18,2.69-14.42,3.46-10.93,2.98-23.13,8.47-33.16,14.31-14.67,8.58-33.95,23.88-46.76,38.57-3.03,3.44-7.27,6.08-12.75,6.69-9.07.93-13.82,0-22.93-5.99l-16.63-10.58c-9.24-5.47-12.33-18.47-4.33-28.17-1-1.05,12.87,28.98,14.93,30.2,11.18,6.78,15.72,10.09,23.34,10.05,7.22.1,13.83-3.17,17.01-6.66,14.76-16.02,31.03-29.49,48.12-39.41,14.2-8.26,27.88-13.13,40.4-15.5,3.12-.58,7.65-1.05,8.31-3.02.58-1.95-.73-3.88-.73-3.88Z"/>
          <path class="cls-48" d="m781.84,1195.54c13.88-14.65,29.04-26.9,44.91-36.13,16.29-9.39,32.14-14.7,46.46-16.13,7.52-.93,14.84,1.65,21.17,5.56l36.16,21.45c2.85,1.66,1.65,5.86-1.45,6.22-2.57.11-5.18.6-7.71,1.04-12.22,2.33-25.22,7.2-38.83,15.14-14.67,8.46-28.47,19.42-41.49,32.39-1.28,1.33-3.01,3.12-4.84,5.22-7.93,8.89-20.85,11.19-30.96,5.19l-1.8-1.12-19.23-11.46c-9.11-5.44-11.09-17.93-3.89-25.8.54-.61,1.01-1.14,1.49-1.58Z"/>
        </g>
        <g>
          <g>
            <path class="cls-47" d="m887.89,1076.23l-415.94-229.9c-2.54-1.57-4.13-4.75-4.13-9.15,0-2.39.44-5,1.17-7.41l416.15,229.97c-.83,2.5-1.31,5.14-1.31,7.42,0,4.44,1.6,7.6,4.06,9.07h0Z"/>
            <path class="cls-38" d="m491.94,811.6c-4.22-2.3-9.06,0-12.76,2.83h0l-194.15,123.03,413.68,234.79,196.63-127.85h0l.59-.57h0c5.48-3.78,9.46-3.57,11.86-2.15l-415.85-230.08Z"/>
            <path class="cls-44" d="m283.5,939.03c.41-.5.79-1.03,1.47-1.47l413.61,234.95c-.63.28-.98.89-1.38,1.43-1.14,1.5-1.74,3.23-1.67,4.74.26.9.54,1.38.97,1.73l-413.61-234.88c-.48-.28-.95-.92-.95-1.78-.15-1.31.52-3.18,1.57-4.71Z"/>
            <polygon class="cls-5" points="698.58 1172.51 284.97 937.56 285.03 937.46 698.71 1172.25 698.58 1172.51 698.58 1172.51"/>
            <path class="cls-45" d="m897.92,1042.73c7.65-4.55,13.95-.9,13.95,8.14s-6.3,20.04-14.04,24.38c-7.71,4.73-14.02.96-14.02-8.09,0-2.28.48-4.91,1.31-7.42l-3.1,2.04-182.6,118.32c-2.13,1.35-3.64.64-3.9-1.42-.14-2.23,1.29-4.99,3.18-6.42l197.23-128.42s.53-.25.64-.34l.74-.32s.37-.28.61-.44Z"/>
          </g>
          <g class="cls-17">
            <path class="cls-11" d="m740.77,972.75c3.21,1.89,4.08,8.03.49,11.61l-112.46,72.82c-9.52,5.92-17.64.57-26.39-4.54l-217.69-119.04c-6.76-3.97-4.77-10.11,0-12.89l108.92-73.09c6.14-3.62,13.26-5.13,17.75-2.53l229.39,127.66Z"/>
          </g>
          <g class="cls-17">
            <path class="cls-11" d="m835.17,1024.51c3.21,1.89,4.08,8.04.49,11.62l-112.46,72.83c-9.52,5.9-17.64.54-26.4-4.55l-50.2-26.89c-6.77-3.99-4.78-10.12,0-12.91l108.91-73.08c6.14-3.62,13.26-5.13,17.75-2.54l61.9,35.53Z"/>
          </g>
          <g class="cls-17">
            <path class="cls-11" d="m575.25,1053.27c1.97,1.15,2.51,4.94.3,7.14l-5.21,2.07c-5.85,3.62-10.85.33-16.23-2.8l-169.71-93.76c-4.15-2.45-2.94-6.21,0-7.93l3.04-2.22c3.77-2.23,8.14-3.16,10.91-1.57l176.9,99.07Z"/>
          </g>
        </g>
      </g>
      <g class="cls-18">
        <g class="cls-67">
          <path class="cls-6" d="m949.74,526.27c5.64,0,9.53-4.52,9.55-12.34-.02,7.82-3.91,12.34-9.55,12.34Z"/>
          <path class="cls-6" d="m942.15,483.86c9.48,5.55,17.17,19.04,17.14,30.08-.03,10.62-7.19,15.15-16.17,10.55l-.62,223.24-2.15-1.25.62-223.24c-2.11-1.39-4.11-3.16-5.94-5.19l-45.7,31.58c1.41,3.74,2.21,7.57,2.2,11.14-.03,10.62-7.19,15.15-16.17,10.54l-.38,136.92-2.15-1.25.38-136.92c-8.98-5.9-16.09-18.79-16.06-29.41,0-1.33.12-2.55.34-3.68l-39.01-48.5c-2.82,1.35-6.48,1.12-10.52-.95l-.51,181.21-2.15-1.26.5-181.21c-2.29-1.51-4.47-3.48-6.43-5.74l-44.94,27.58c1.24,3.51,1.95,7.09,1.95,10.44-.03,10.62-7.19,15.15-16.17,10.55l-.28,100.13-2.15-1.26.28-100.13c-8.98-5.91-16.09-18.79-16.06-29.41,0-1.32.12-2.55.33-3.69l-39-48.5c-2.82,1.35-6.49,1.12-10.52-.95l-.4,144.43-2.15-1.26.4-144.43c-2.36-1.55-4.59-3.59-6.6-5.94l-44.68,26.27c1.19,3.43,1.86,6.92,1.86,10.19-.03,10.62-7.19,15.16-16.17,10.55l-.18,65.11-2.15-1.26.18-65.11c-8.98-5.9-16.09-18.78-16.06-29.4.03-11.04,7.77-15.5,17.24-9.96,2.76,1.61,5.36,3.9,7.67,6.61l44.69-26.26c-1.19-3.43-1.87-6.92-1.86-10.2.03-11.04,7.77-15.5,17.24-9.96,9.48,5.54,17.17,19.03,17.14,30.08,0,1.33-.13,2.55-.34,3.69l39.01,48.5c3.07-1.47,7.14-1.08,11.59,1.53,2.69,1.58,5.24,3.79,7.5,6.41l44.94-27.57c-1.25-3.51-1.95-7.09-1.95-10.44.03-11.04,7.77-15.51,17.25-9.97,9.48,5.55,17.17,19.04,17.13,30.08,0,1.33-.12,2.56-.34,3.68l39.01,48.5c3.07-1.47,7.14-1.07,11.59,1.54,2.5,1.46,4.88,3.48,7.02,5.86l45.7-31.57c-1.41-3.74-2.21-7.57-2.2-11.15.03-11.03,7.77-15.5,17.24-9.96Zm-67.84,75.35c4.03,2.36,7.32.45,7.33-4.24.01-4.69-3.25-10.42-7.28-12.78-4.03-2.36-7.31-.46-7.32,4.23-.01,4.69,3.25,10.43,7.28,12.78m67.76-46.82c4.03,2.36,7.32.46,7.33-4.23.01-4.69-3.25-10.42-7.28-12.78-4.03-2.36-7.31-.46-7.32,4.23-.01,4.7,3.25,10.42,7.28,12.78m-135.15-36.98c4.03,2.36,7.32.46,7.33-4.23.01-4.7-3.25-10.43-7.28-12.79-4.03-2.36-7.31-.46-7.32,4.24-.01,4.69,3.25,10.42,7.28,12.78m-67.74,41.57c4.03,2.36,7.32.46,7.33-4.24.01-4.69-3.25-10.42-7.28-12.78-4.03-2.35-7.31-.46-7.32,4.23-.01,4.69,3.25,10.43,7.28,12.78m-135.13-43.98c4.03,2.36,7.32.46,7.33-4.23.01-4.69-3.26-10.42-7.28-12.78-4.02-2.36-7.31-.46-7.33,4.23-.01,4.69,3.25,10.42,7.28,12.78m67.74-39.82c4.03,2.36,7.32.46,7.33-4.23.01-4.7-3.26-10.43-7.28-12.79-4.03-2.36-7.31-.46-7.32,4.24-.01,4.69,3.25,10.42,7.28,12.78"/>
          <path class="cls-6" d="m600.82,454.96h0c.99,0,2.1.33,3.27,1.01-1.17-.69-2.28-1.01-3.27-1.01Z"/>
          <path class="cls-6" d="m619.4,464.34c1.19,3.43,1.86,6.92,1.86,10.19,0-3.27-.66-6.76-1.86-10.19Z"/>
          <path class="cls-6" d="m604.12,444.46c2.76,1.61,5.36,3.9,7.67,6.61-2.31-2.7-4.91-4.99-7.67-6.61Z"/>
          <path class="cls-6" d="m934.45,481.48h0c-5.63,0-9.52,4.52-9.55,12.34.02-7.82,3.91-12.34,9.55-12.34Z"/>
        </g>
      </g>
      <g>
        <path class="cls-46" d="m1214.93,873.88c10.32,6.04,18.19,20.7,18.16,32.73v173.98c-.03,12.03-8.44,16.88-18.77,10.84l-234.75-137.36c-10.32-6.04-18.67-20.7-18.63-32.72v-173.98c.03-12.04,8.92-16.89,19.24-10.84l234.75,137.36Z"/>
        <path class="cls-39" d="m960.94,747.36c.03-12.04,8.92-16.89,19.24-10.84l234.75,137.36c10.32,6.04,18.19,20.7,18.16,32.73l-272.15-159.25Z"/>
        <g class="cls-17">
          <polygon class="cls-14" points="1037.7 821.8 1037.7 880.53 990.14 852.7 990.14 793.97 1037.7 821.8"/>
          <path class="cls-14" d="m1085.96,850.04c2.43,1.42,4.39,4.87,4.39,7.7,0,2.83-1.99,3.98-4.42,2.56l-30.3-17.73c-2.43-1.42-4.39-4.87-4.39-7.71,0-2.83,1.99-3.97,4.42-2.55l30.3,17.73Z"/>
          <path class="cls-14" d="m1067.62,961.67c2.43,1.42,4.39,4.87,4.39,7.7,0,2.83-1.98,3.98-4.42,2.55l-35.16-20.57c-2.43-1.43-4.4-4.87-4.39-7.7,0-2.83,1.98-3.98,4.41-2.55l35.16,20.57Z"/>
          <g class="cls-67">
            <path class="cls-14" d="m1010.55,928.27c2.43,1.42,4.39,4.87,4.38,7.7,0,2.83-1.98,3.97-4.42,2.55l-15.7-9.19c-2.43-1.42-4.4-4.87-4.39-7.7,0-2.83,1.99-3.97,4.42-2.55l15.71,9.19Z"/>
            <path class="cls-14" d="m1085.84,949.25c2.43,1.42,4.39,4.87,4.38,7.7,0,2.83-1.98,3.97-4.41,2.55l-91.09-53.3c-2.43-1.42-4.4-4.87-4.39-7.71,0-2.82,1.99-3.97,4.42-2.55l91.09,53.3Z"/>
          </g>
          <path class="cls-14" d="m1100.64,883.6c2.43,1.42,4.39,4.87,4.39,7.7-.01,2.83-1.99,3.98-4.42,2.55l-44.88-26.26c-2.43-1.42-4.39-4.87-4.39-7.7,0-2.83,1.99-3.97,4.42-2.55l44.88,26.26Z"/>
          <path class="cls-14" d="m1103.26,934.48c2.43,1.42,4.4,4.87,4.39,7.71,0,2.83-1.98,3.97-4.42,2.55l-30.29-17.73c-2.43-1.42-4.39-4.87-4.38-7.7,0-2.83,1.98-3.98,4.42-2.55l30.29,17.72Z"/>
          <g class="cls-67">
            <path class="cls-14" d="m1147.98,911.3c2.43,1.42,4.39,4.87,4.39,7.7,0,2.83-1.98,3.97-4.42,2.55l-25.42-14.88c-2.44-1.42-4.4-4.87-4.39-7.7,0-2.83,1.98-3.97,4.42-2.55l25.43,14.88Z"/>
            <path class="cls-14" d="m1194.1,913.32c2.43,1.42,4.4,4.87,4.38,7.7,0,2.83-1.98,3.98-4.42,2.56l-86.23-50.46c-2.43-1.42-4.4-4.87-4.39-7.71,0-2.83,1.99-3.97,4.42-2.55l86.23,50.46Z"/>
          </g>
          <g class="cls-67">
            <path class="cls-14" d="m1156.53,990.62c2.43,1.42,4.4,4.87,4.39,7.7,0,2.83-1.99,3.97-4.42,2.55l-48.78-28.55c-2.44-1.42-4.4-4.86-4.39-7.7,0-2.83,1.98-3.97,4.42-2.55l48.78,28.54Z"/>
            <path class="cls-14" d="m1193.89,987.51c2.44,1.42,4.4,4.87,4.39,7.71,0,2.83-1.98,3.98-4.42,2.55l-71.64-41.92c-2.43-1.42-4.39-4.87-4.38-7.7,0-2.83,1.99-3.98,4.41-2.56l71.64,41.92Z"/>
            <path class="cls-14" d="m1193.97,961.28c2.43,1.42,4.39,4.87,4.38,7.7,0,2.83-1.98,3.98-4.41,2.55l-40.02-23.42c-2.43-1.42-4.39-4.87-4.39-7.7,0-2.83,1.98-3.98,4.42-2.55l40.02,23.42Z"/>
          </g>
          <path class="cls-14" d="m1194.03,938.24c2.43,1.42,4.39,4.87,4.39,7.7,0,2.83-1.98,3.97-4.42,2.55l-25.43-14.88c-2.43-1.42-4.4-4.87-4.39-7.7,0-2.83,1.98-3.97,4.42-2.55l25.43,14.88Z"/>
          <path class="cls-14" d="m1053.81,905.54c2.43,1.42,4.4,4.87,4.39,7.71,0,2.82-1.99,3.97-4.42,2.55l-10.84-6.34c-2.43-1.42-4.39-4.87-4.39-7.7,0-2.83,1.99-3.98,4.42-2.55l10.84,6.34Z"/>
          <path class="cls-14" d="m1071.39,889.56c2.43,1.42,4.4,4.87,4.39,7.7,0,2.83-1.98,3.97-4.42,2.55l-15.7-9.19c-2.43-1.42-4.4-4.87-4.39-7.7,0-2.83,1.98-3.97,4.42-2.55l15.7,9.19Z"/>
          <path class="cls-14" d="m1133.33,925.8c2.43,1.42,4.39,4.87,4.39,7.7,0,2.83-1.99,3.97-4.42,2.55l-40.02-23.42c-2.43-1.42-4.4-4.87-4.39-7.7,0-2.84,1.98-3.98,4.41-2.55l40.03,23.42Z"/>
          <path class="cls-14" d="m1024.62,888.46c2.43,1.42,4.4,4.87,4.39,7.71,0,2.83-1.98,3.98-4.42,2.55l-30.29-17.72c-2.43-1.42-4.4-4.87-4.39-7.7,0-2.83,1.98-3.98,4.42-2.56l30.29,17.73Z"/>
          <g class="cls-67">
            <path class="cls-14" d="m1193.76,1035.47c2.43,1.43,4.39,4.87,4.39,7.7,0,2.83-1.98,3.97-4.42,2.55l-63.37-37.08c-2.43-1.42-4.39-4.87-4.38-7.7,0-2.83,1.98-3.98,4.42-2.55l63.37,37.08Z"/>
            <path class="cls-14" d="m1193.82,1012.44c2.43,1.43,4.39,4.87,4.39,7.7,0,2.83-1.99,3.97-4.42,2.55l-16.67-9.76c-2.43-1.42-4.39-4.87-4.39-7.7,0-2.83,1.98-3.97,4.42-2.55l16.67,9.75Z"/>
          </g>
          <path class="cls-14" d="m1110.26,986.62c2.43,1.42,4.39,4.87,4.39,7.7,0,2.83-1.98,3.97-4.42,2.55l-22.03-12.89c-2.43-1.42-4.39-4.87-4.38-7.7,0-2.83,1.99-3.97,4.42-2.55l22.03,12.89Z"/>
        </g>
      </g>
      <polygon class="cls-16" points="381.83 722.48 415.76 700.58 416.79 751.63 381.83 722.48"/>
      <g>
        <polygon class="cls-41" points="468.19 695.96 0 743.16 0 801.84 194.67 915.75 468.19 754.64 468.19 695.96"/>
        <g>
          <path class="cls-8" d="m342.8,708.76c4.34-2.56,4.32-6.7-.05-9.26,4.37,2.56,4.39,6.7.05,9.26Z"/>
          <polygon class="cls-42" points="273.52 582.05 468.19 695.96 194.67 857.07 0 743.16 273.52 582.05"/>
          <path class="cls-40" d="m342.75,699.5c4.37,2.56,4.39,6.7.05,9.26-4.34,2.55-11.4,2.55-15.77,0l-74.85-43.8c-4.37-2.56-4.39-6.7-.05-9.26,4.34-2.56,11.4-2.56,15.77,0l74.85,43.79Z"/>
          <path class="cls-43" d="m311.02,718.19c4.37,2.55,4.39,6.7.05,9.26-4.34,2.56-11.4,2.56-15.77,0l-74.85-43.79c-4.37-2.55-4.39-6.7-.05-9.26,4.34-2.56,11.4-2.56,15.77,0l74.85,43.8Z"/>
          <path class="cls-52" d="m279.29,736.88c4.37,2.55,4.39,6.7.05,9.26-4.34,2.56-11.4,2.56-15.77,0l-74.85-43.79c-4.37-2.56-4.39-6.7-.05-9.26,4.34-2.55,11.4-2.55,15.77,0l74.85,43.8Z"/>
          <path class="cls-60" d="m247.57,755.56c4.37,2.56,4.39,6.7.05,9.26-4.34,2.55-11.4,2.55-15.77,0l-74.85-43.8c-4.37-2.56-4.39-6.7-.05-9.26,4.34-2.55,11.4-2.56,15.77,0l74.85,43.79Z"/>
        </g>
        <g class="cls-15">
          <path class="cls-4" d="m468.19,739.16c-.75,0-1.5.17-2.2.58l-271.34,159.81L2.18,786.93c-.69-.4-1.44-.58-2.18-.57v5.09l192.48,112.63c.68.39,1.43.59,2.18.59s1.52-.2,2.2-.6l271.33-159.81v-5.1Z"/>
          <path class="cls-4" d="m468.19,723.29c-.75,0-1.5.17-2.2.58l-271.34,159.82L2.18,771.06c-.69-.4-1.44-.58-2.18-.57v5.09l192.48,112.64c.68.39,1.43.59,2.18.59s1.52-.2,2.2-.6l271.33-159.81v-5.11Z"/>
          <path class="cls-4" d="m468.19,707.42c-.75,0-1.5.17-2.2.58l-271.34,159.81L2.18,755.19c-.69-.4-1.44-.58-2.18-.57v5.09l192.48,112.63c.68.4,1.43.59,2.18.59s1.52-.2,2.2-.6l271.33-159.81v-5.11Z"/>
        </g>
        <polygon class="cls-53" points="394.64 672.55 424.2 670.22 425.23 721.27 394.64 672.55"/>
      </g>
      <g>
        <g>
          <path class="cls-51" d="m623.16,140.11c10.34,6.05,18.21,20.72,18.18,32.76v174.16c-.03,12.04-8.45,16.9-18.78,10.85l-234.99-137.51c-10.34-6.05-18.69-20.72-18.66-32.76V13.46c.03-12.05,8.93-16.9,19.26-10.85l234.99,137.51Z"/>
          <path class="cls-61" d="m368.91,13.46c.03-12.05,8.93-16.9,19.26-10.85l234.99,137.51c10.34,6.05,18.21,20.72,18.18,32.76L368.91,13.46Z"/>
        </g>
        <g class="cls-67">
          <path class="cls-62" d="m551.61,159.04l-.1,33.8,25.66-.91c2.16,6.01,3.38,12.14,3.36,17.89-.05,18.66-13.09,26.19-29.11,16.82-16.03-9.38-28.98-32.12-28.93-50.78.05-18.67,13.09-26.2,29.12-16.82Z"/>
          <path class="cls-64" d="m555.08,154.2c11.09,6.49,20.71,19.37,25.56,32.88l-25.66.91.1-33.8Z"/>
        </g>
        <g>
          <path class="cls-66" d="m428.46,186.44c.95.56,1.73,1.91,1.72,3.03,0,1.11-.79,1.56-1.74,1l-17.65-10.33c-.96-.56-1.73-1.91-1.72-3.03,0-1.11.78-1.56,1.74-1l17.65,10.33Z"/>
          <path class="cls-65" d="m422.68,173.25c.96.56,1.73,1.91,1.72,3.03,0,1.11-.78,1.57-1.74,1.01l-11.91-6.97c-.95-.56-1.73-1.92-1.72-3.03,0-1.11.78-1.56,1.74-1l11.91,6.97Z"/>
          <path class="cls-63" d="m447.07,197.34c.95.55,1.73,1.91,1.72,3.03,0,1.11-.78,1.56-1.73,1l-10-5.85c-.96-.56-1.73-1.92-1.73-3.03,0-1.11.78-1.56,1.74-1l10,5.85Z"/>
          <path class="cls-57" d="m465.15,216.98c.96.56,1.73,1.91,1.72,3.03,0,1.11-.78,1.56-1.73,1l-15.73-9.21c-.96-.56-1.73-1.92-1.73-3.03,0-1.11.78-1.56,1.74-1l15.73,9.21Z"/>
          <path class="cls-55" d="m465.17,207.93c.96.56,1.73,1.91,1.72,3.02,0,1.11-.78,1.56-1.73,1l-10-5.85c-.96-.56-1.73-1.91-1.72-3.03,0-1.11.78-1.56,1.74-1l10,5.85Z"/>
          <path class="cls-59" d="m441.31,203.03c.96.56,1.73,1.91,1.72,3.03,0,1.11-.78,1.56-1.74,1l-15.73-9.21c-.96-.56-1.73-1.91-1.73-3.03,0-1.11.78-1.56,1.74-1l15.73,9.21Z"/>
          <path class="cls-56" d="m465.2,198.13c.96.56,1.73,1.91,1.72,3.03,0,1.11-.78,1.57-1.74,1.01l-33.9-19.84c-.96-.56-1.73-1.92-1.72-3.03,0-1.11.78-1.56,1.74-1l33.9,19.84Z"/>
          <path class="cls-54" d="m416.95,188.78c.96.56,1.73,1.92,1.73,3.03,0,1.11-.78,1.56-1.74,1l-6.17-3.61c-.96-.56-1.73-1.91-1.72-3.03,0-1.11.78-1.56,1.74-1l6.17,3.61Z"/>
        </g>
        <g>
          <path class="cls-58" d="m561.66,253.29c.98.57,1.76,1.95,1.76,3.09,0,1.14-.79,1.6-1.77,1.03l-16.07-9.4c-.98-.57-1.76-1.96-1.76-3.1,0-1.14.79-1.59,1.77-1.02l16.07,9.4Z"/>
          <path class="cls-29" d="m549.92,255.68c.98.57,1.76,1.95,1.76,3.09,0,1.14-.79,1.6-1.77,1.02l-10.21-5.97c-.98-.57-1.76-1.95-1.76-3.09,0-1.14.79-1.59,1.77-1.02l10.21,5.97Z"/>
          <path class="cls-28" d="m537.32,239.05c.97.57,1.76,1.95,1.76,3.09,0,1.14-.8,1.6-1.77,1.03l-16.07-9.4c-.98-.57-1.76-1.96-1.76-3.1,0-1.14.8-1.59,1.77-1.02l16.07,9.4Z"/>
          <path class="cls-31" d="m531.43,244.86c.98.57,1.76,1.95,1.76,3.09,0,1.14-.8,1.59-1.77,1.02l-10.21-5.97c-.98-.57-1.76-1.95-1.76-3.09,0-1.14.79-1.59,1.77-1.02l10.21,5.97Z"/>
          <path class="cls-30" d="m555.81,269.15c.98.57,1.76,1.95,1.76,3.09,0,1.14-.8,1.59-1.77,1.02l-34.62-20.26c-.98-.57-1.76-1.95-1.76-3.09,0-1.14.8-1.6,1.77-1.02l34.62,20.26Z"/>
          <path class="cls-34" d="m576.73,271.37c.98.57,1.76,1.95,1.76,3.09,0,1.14-.79,1.59-1.77,1.02l-18.02-10.54c-.98-.57-1.76-1.95-1.76-3.09,0-1.14.79-1.59,1.77-1.02l18.02,10.54Z"/>
          <path class="cls-32" d="m576.77,281.42c.98.57,1.76,1.95,1.76,3.09,0,1.14-.8,1.6-1.77,1.02l-12.16-7.12c-.98-.57-1.76-1.95-1.76-3.09,0-1.14.8-1.59,1.77-1.02l12.16,7.12Z"/>
          <path class="cls-33" d="m576.76,262.12c.98.57,1.76,1.95,1.76,3.09,0,1.14-.79,1.6-1.77,1.03l-6.3-3.69c-.98-.57-1.76-1.96-1.76-3.1,0-1.14.79-1.6,1.77-1.02l6.3,3.69Z"/>
        </g>
        <g>
          <polygon class="cls-9" points="422.16 124.27 422.14 129.42 410.88 122.83 410.9 117.68 422.16 124.27"/>
          <polygon class="cls-7" points="422.14 129.42 422.09 149.88 410.82 143.29 410.88 122.83 422.14 129.42"/>
          <polygon class="cls-9" points="438.86 116.13 438.84 121.75 427.58 115.16 427.59 109.54 438.86 116.13"/>
          <polygon class="cls-7" points="438.84 121.75 438.73 159.62 427.47 153.03 427.58 115.16 438.84 121.75"/>
          <g class="cls-67">
            <polygon class="cls-7" points="455.46 141.84 455.38 169.37 444.12 162.78 444.2 135.25 455.46 141.84"/>
            <polygon class="cls-9" points="455.48 132.23 455.46 141.84 444.2 135.25 444.22 125.64 455.48 132.23"/>
          </g>
          <g class="cls-67">
            <polygon class="cls-7" points="472.15 133.94 472.03 179.11 460.77 172.52 460.89 127.35 472.15 133.94"/>
            <polygon class="cls-9" points="472.19 121.15 472.15 133.94 460.89 127.35 460.93 114.56 472.19 121.15"/>
          </g>
        </g>
      </g>
      <g>
        <path class="cls-36" d="m438.47,354.55c10.34,6.05,18.21,20.72,18.18,32.76v174.16c-.03,12.03-8.45,16.89-18.79,10.85l-234.99-137.5c-10.34-6.05-18.69-20.72-18.66-32.76v-174.15c.03-12.04,8.93-16.9,19.27-10.85l234.99,137.5Z"/>
        <path class="cls-37" d="m184.21,227.91c.03-12.04,8.93-16.9,19.27-10.85l234.99,137.5c10.34,6.05,18.21,20.72,18.18,32.76L184.21,227.91Z"/>
        <path class="cls-3" d="m317.91,324.23c.98.57,1.76,1.96,1.76,3.1,0,1.14-.79,1.59-1.77,1.02l-12.18-7.13c-.98-.57-1.77-1.95-1.77-3.09,0-1.13.8-1.6,1.78-1.02l12.18,7.13Z"/>
        <path class="cls-3" d="m350.8,343.47c.98.57,1.76,1.96,1.76,3.1,0,1.14-.79,1.59-1.77,1.03l-18.31-10.72c-.98-.57-1.77-1.95-1.76-3.09,0-1.14.8-1.6,1.77-1.03l18.31,10.72Z"/>
        <path class="cls-17" d="m241.72,382.56c4.51,2.64,8.17,9.06,8.15,14.31-.02,5.25-3.7,7.37-8.21,4.73-4.51-2.64-8.16-9.05-8.15-14.3.02-5.25,3.69-7.38,8.2-4.74Zm-.04,16.19c3.16,1.84,5.73.36,5.74-3.32.01-3.68-2.55-8.17-5.7-10.01-3.16-1.85-5.73-.36-5.74,3.32-.01,3.68,2.55,8.17,5.71,10.01"/>
        <path class="cls-17" d="m395.93,472.47l8.91,23.06-17.93-10.49,9.02-12.57Zm-.02,5.65l-4.72,6.57,9.38,5.48-4.66-12.06"/>
        <path class="cls-17" d="m312.07,424.8l14.72,8.61-.05,17.14-14.72-8.62.05-17.14Zm12.22,21.45l.03-11.43-9.8-5.74-.03,11.43,9.81,5.74"/>
        <path class="cls-3" d="m375.11,357.7c.98.57,1.76,1.96,1.76,3.09,0,1.14-.8,1.6-1.77,1.03l-9.73-5.69c-.97-.57-1.76-1.95-1.76-3.09,0-1.14.79-1.6,1.78-1.03l9.73,5.69Z"/>
        <polygon class="cls-35" points="432.7 414.66 432.51 481.67 205.95 349.09 206.14 282.09 432.7 414.66"/>
        <path class="cls-3" d="m425.57,387.22c.97.57,1.76,1.96,1.76,3.1,0,1.13-.79,1.59-1.77,1.02l-9.12-5.34c-.97-.57-1.76-1.95-1.76-3.09,0-1.13.8-1.6,1.78-1.03l9.12,5.33Z"/>
        <g class="cls-17">
          <path class="cls-12" d="m231.49,414.95c.97.57,1.76,1.95,1.76,3.09,0,1.14-.8,1.59-1.77,1.02l-18.02-10.55c-.98-.57-1.76-1.95-1.76-3.09,0-1.14.8-1.59,1.77-1.02l18.02,10.55Z"/>
          <path class="cls-12" d="m225.59,401.48c.98.57,1.76,1.95,1.76,3.09,0,1.14-.79,1.6-1.77,1.03l-12.16-7.12c-.97-.57-1.76-1.96-1.76-3.1,0-1.14.8-1.59,1.77-1.02l12.16,7.12Z"/>
          <path class="cls-12" d="m250.49,426.07c.97.57,1.76,1.95,1.76,3.09,0,1.14-.8,1.59-1.77,1.02l-10.21-5.97c-.98-.57-1.77-1.96-1.77-3.09,0-1.14.8-1.6,1.78-1.02l10.21,5.97Z"/>
          <path class="cls-12" d="m268.95,446.13c.98.57,1.76,1.95,1.76,3.09,0,1.14-.8,1.59-1.77,1.02l-16.06-9.4c-.98-.57-1.77-1.95-1.77-3.09,0-1.14.8-1.59,1.78-1.02l16.06,9.4Z"/>
          <path class="cls-12" d="m268.97,436.88c.98.57,1.76,1.95,1.76,3.09,0,1.14-.79,1.6-1.77,1.03l-10.21-5.97c-.97-.57-1.76-1.95-1.76-3.09,0-1.14.79-1.59,1.77-1.03l10.21,5.97Z"/>
          <path class="cls-12" d="m244.61,431.89c.98.57,1.76,1.95,1.76,3.09,0,1.14-.79,1.6-1.77,1.03l-16.07-9.4c-.97-.57-1.77-1.95-1.76-3.09,0-1.14.8-1.59,1.78-1.02l16.06,9.4Z"/>
          <path class="cls-12" d="m269,426.88c.98.57,1.76,1.95,1.76,3.09,0,1.14-.79,1.6-1.77,1.03l-34.62-20.26c-.98-.57-1.76-1.96-1.76-3.09,0-1.14.79-1.6,1.77-1.02l34.62,20.26Z"/>
          <path class="cls-12" d="m219.74,417.34c.98.57,1.77,1.96,1.77,3.1,0,1.14-.8,1.59-1.78,1.02l-6.3-3.69c-.97-.57-1.76-1.95-1.76-3.09,0-1.14.79-1.6,1.77-1.03l6.3,3.68Z"/>
          <path class="cls-12" d="m324.19,478.8c.97.57,1.76,1.95,1.76,3.09,0,1.14-.8,1.59-1.77,1.02l-8.84-5.18c-.97-.57-1.76-1.95-1.76-3.09,0-1.14.8-1.59,1.77-1.02l8.84,5.17Z"/>
          <path class="cls-12" d="m331.97,474.09c.98.57,1.77,1.96,1.76,3.09,0,1.14-.8,1.59-1.78,1.02l-8.79-5.14c-.98-.57-1.77-1.95-1.77-3.09,0-1.14.8-1.59,1.78-1.02l8.79,5.14Z"/>
          <path class="cls-12" d="m346.92,492.1c.98.57,1.76,1.95,1.76,3.09,0,1.14-.8,1.6-1.78,1.02l-14.65-8.57c-.98-.57-1.76-1.95-1.76-3.09,0-1.14.8-1.59,1.78-1.02l14.65,8.57Z"/>
          <path class="cls-12" d="m346.94,482.85c.98.58,1.76,1.95,1.76,3.09,0,1.14-.79,1.6-1.77,1.02l-6.69-3.92c-.98-.57-1.76-1.95-1.76-3.09,0-1.14.79-1.6,1.77-1.02l6.7,3.92Z"/>
          <path class="cls-12" d="m295.11,461.78c-.98-.57-.99,3.54,0,4.11l1.99,1.16-6.31-3.69c-.97-.57-1.76-1.95-1.76-3.09,0-1.14.8-1.59,1.77-1.02l4.32,2.53Z"/>
          <path class="cls-12" d="m307.07,468.78c.97.57,1.77,1.95,1.76,3.09,0,1.14-.8,1.59-1.77,1.02l-9.97-5.83-1.99-1.16c-.98-.57-.97-4.68,0-4.11l11.96,7Z"/>
          <path class="cls-12" d="m302.75,446.97c.98.57,1.76,1.95,1.76,3.09,0,1.14-.79,1.59-1.77,1.02l-12.16-7.12c-.98-.57-1.76-1.95-1.76-3.09,0-1.14.8-1.59,1.78-1.03l12.16,7.12Z"/>
          <path class="cls-12" d="m314.38,463.8c.97.57,1.76,1.95,1.76,3.09,0,1.14-.8,1.59-1.77,1.02l-23.63-13.82c-.98-.57-1.77-1.95-1.76-3.09,0-1.13.8-1.59,1.78-1.02l23.62,13.82Z"/>
          <path class="cls-12" d="m314.47,453.82c.98.57,1.77,1.95,1.76,3.09,0,1.14-.79,1.6-1.77,1.02l-4.35-2.54c-.98-.57-1.77-1.96-1.77-3.1,0-1.14.8-1.59,1.78-1.02l4.35,2.55Z"/>
          <path class="cls-12" d="m346.97,472.84c.98.57,1.76,1.95,1.76,3.09,0,1.13-.8,1.59-1.78,1.02l-24.44-14.3c-.97-.58-1.77-1.95-1.76-3.09,0-1.14.8-1.59,1.78-1.02l24.44,14.3Z"/>
          <path class="cls-12" d="m408.97,508.78c.98.57,1.76,1.95,1.76,3.09,0,1.14-.79,1.6-1.77,1.03l-16.07-9.4c-.97-.57-1.76-1.96-1.76-3.1,0-1.14.79-1.59,1.77-1.02l16.07,9.4Z"/>
          <path class="cls-12" d="m397.23,511.18c.98.57,1.76,1.95,1.76,3.09,0,1.14-.79,1.6-1.77,1.02l-10.21-5.97c-.97-.57-1.76-1.95-1.76-3.09,0-1.14.8-1.59,1.77-1.03l10.21,5.98Z"/>
          <path class="cls-12" d="m384.63,494.54c.97.57,1.76,1.95,1.76,3.09,0,1.14-.8,1.6-1.77,1.03l-16.07-9.4c-.97-.57-1.76-1.96-1.76-3.1,0-1.14.79-1.59,1.77-1.02l16.07,9.4Z"/>
          <path class="cls-12" d="m378.74,500.36c.98.57,1.76,1.95,1.76,3.09,0,1.14-.79,1.59-1.77,1.03l-10.21-5.97c-.97-.57-1.76-1.95-1.76-3.09,0-1.14.79-1.6,1.77-1.02l10.21,5.98Z"/>
          <path class="cls-12" d="m403.13,524.65c.98.57,1.76,1.95,1.76,3.09,0,1.13-.79,1.59-1.77,1.02l-34.62-20.25c-.98-.57-1.76-1.95-1.76-3.09,0-1.14.8-1.6,1.77-1.02l34.62,20.25Z"/>
          <path class="cls-12" d="m424.05,526.87c.98.57,1.76,1.95,1.76,3.09,0,1.14-.79,1.6-1.77,1.03l-18.02-10.55c-.98-.57-1.76-1.95-1.76-3.09,0-1.14.79-1.59,1.77-1.02l18.02,10.55Z"/>
          <path class="cls-12" d="m424.09,536.91c.98.57,1.76,1.95,1.76,3.09,0,1.14-.8,1.6-1.78,1.02l-12.16-7.12c-.98-.57-1.76-1.95-1.76-3.09,0-1.14.79-1.59,1.77-1.02l12.16,7.12Z"/>
          <path class="cls-12" d="m424.07,517.62c.98.57,1.76,1.95,1.76,3.09,0,1.14-.79,1.6-1.77,1.03l-6.3-3.69c-.98-.57-1.77-1.96-1.76-3.09,0-1.14.79-1.6,1.77-1.03l6.3,3.69Z"/>
        </g>
        <path class="cls-27" d="m220.85,264.62c2.77,1.62,5.01,5.56,5,8.79,0,3.23-2.27,4.53-5.04,2.91l-3.78-2.21c-2.77-1.63-5.02-5.56-5.01-8.79.01-3.22,2.27-4.53,5.05-2.9l3.78,2.21Z"/>
        <path class="cls-3" d="m401.87,373.35c.98.57,1.76,1.96,1.76,3.1,0,1.14-.8,1.6-1.77,1.03l-12.18-7.13c-.98-.57-1.76-1.95-1.76-3.09,0-1.14.8-1.6,1.77-1.03l12.18,7.13Z"/>
      </g>
    </g>
  </g>
</svg>