<?xml version="1.0" encoding="UTF-8"?>
<svg id="Layer_1" data-name="Layer 1" xmlns="http://www.w3.org/2000/svg" xmlns:xlink="http://www.w3.org/1999/xlink" viewBox="0 0 2684.77 1568.33">
  <defs>
    <style>
      .cls-1 {
        fill: none;
      }

      .cls-2 {
        clip-path: url(#clippath);
      }

      .cls-3 {
        fill: #6a6ae8;
      }

      .cls-4 {
        fill: #eaa711;
      }

      .cls-5 {
        fill: #ff1b33;
      }

      .cls-6, .cls-7, .cls-8, .cls-9 {
        fill: #fff;
      }

      .cls-10 {
        fill: #ffd2a7;
      }

      .cls-11 {
        fill: #ffbc8e;
      }

      .cls-12 {
        fill: #d3001f;
      }

      .cls-13 {
        fill: #c8d3fb;
      }

      .cls-14 {
        fill: #d5ddfb;
      }

      .cls-15 {
        fill: #1c0a75;
      }

      .cls-16 {
        fill: #1c0a76;
      }

      .cls-17 {
        fill: #3b31a1;
      }

      .cls-18 {
        fill: #dae7ff;
        opacity: .34;
      }

      .cls-19 {
        fill: url(#_ÂÁ_Ï_ÌÌ_È_ËÂÌÚ_7-6);
      }

      .cls-20 {
        fill: url(#_ÂÁ_Ï_ÌÌ_È_ËÂÌÚ_7-7);
      }

      .cls-21 {
        fill: url(#_ÂÁ_Ï_ÌÌ_È_ËÂÌÚ_7-8);
      }

      .cls-22 {
        fill: url(#_ÂÁ_Ï_ÌÌ_È_ËÂÌÚ_7-5);
      }

      .cls-23 {
        fill: url(#_ÂÁ_Ï_ÌÌ_È_ËÂÌÚ_7-4);
      }

      .cls-24 {
        fill: url(#_ÂÁ_Ï_ÌÌ_È_ËÂÌÚ_7-3);
      }

      .cls-25 {
        fill: url(#_ÂÁ_Ï_ÌÌ_È_ËÂÌÚ_7-2);
      }

      .cls-26 {
        fill: url(#_ÂÁ_Ï_ÌÌ_È_ËÂÌÚ_2-3);
      }

      .cls-27 {
        fill: url(#_ÂÁ_Ï_ÌÌ_È_ËÂÌÚ_2-4);
      }

      .cls-28 {
        fill: url(#_ÂÁ_Ï_ÌÌ_È_ËÂÌÚ_2-2);
      }

      .cls-29 {
        fill: url(#_ÂÁ_Ï_ÌÌ_È_ËÂÌÚ_2-8);
      }

      .cls-30 {
        fill: url(#_ÂÁ_Ï_ÌÌ_È_ËÂÌÚ_2-6);
      }

      .cls-31 {
        fill: url(#_ÂÁ_Ï_ÌÌ_È_ËÂÌÚ_2-7);
      }

      .cls-32 {
        fill: url(#_ÂÁ_Ï_ÌÌ_È_ËÂÌÚ_2-5);
      }

      .cls-7 {
        opacity: .6;
      }

      .cls-8 {
        opacity: .5;
      }

      .cls-33 {
        fill: url(#_ÂÁ_Ï_ÌÌ_È_ËÂÌÚ_7);
      }

      .cls-34 {
        fill: url(#_ÂÁ_Ï_ÌÌ_È_ËÂÌÚ_6);
      }

      .cls-35 {
        fill: url(#_ÂÁ_Ï_ÌÌ_È_ËÂÌÚ_2);
      }

      .cls-9 {
        opacity: .35;
      }
    </style>
    <linearGradient id="_ÂÁ_Ï_ÌÌ_È_ËÂÌÚ_7" data-name="¡ÂÁ˚ÏˇÌÌ˚È „‡‰ËÂÌÚ 7" x1="506.33" y1="1087.38" x2="2108.04" y2="553.48" gradientUnits="userSpaceOnUse">
      <stop offset="0" stop-color="#fff"/>
      <stop offset="1" stop-color="#d3dbeb"/>
    </linearGradient>
    <linearGradient id="_ÂÁ_Ï_ÌÌ_È_ËÂÌÚ_7-2" data-name="¡ÂÁ˚ÏˇÌÌ˚È „‡‰ËÂÌÚ 7" x1="762.02" y1="1692.63" x2="2478.15" y2="1106.29" xlink:href="#_ÂÁ_Ï_ÌÌ_È_ËÂÌÚ_7"/>
    <clipPath id="clippath">
      <path class="cls-1" d="m1509.54,175.82c207.01,59.62,554.63,243.78,539,666.78-15.63,423-384.71,204.84-661.92,587.04-206.68,284.95-1071.84-104.67-561-941.8,203.4-333.33,504.28-363.76,683.93-312.02Z"/>
    </clipPath>
    <linearGradient id="_ÂÁ_Ï_ÌÌ_È_ËÂÌÚ_7-3" data-name="¡ÂÁ˚ÏˇÌÌ˚È „‡‰ËÂÌÚ 7" x1="0" y1="804.89" x2="2684.77" y2="804.89" xlink:href="#_ÂÁ_Ï_ÌÌ_È_ËÂÌÚ_7"/>
    <linearGradient id="_ÂÁ_Ï_ÌÌ_È_ËÂÌÚ_2" data-name="¡ÂÁ˚ÏˇÌÌ˚È „‡‰ËÂÌÚ 2" x1="1703.98" y1="1098.78" x2="1763.93" y2="1098.78" gradientUnits="userSpaceOnUse">
      <stop offset="0" stop-color="#6a6ae8"/>
      <stop offset="1" stop-color="#312890"/>
    </linearGradient>
    <linearGradient id="_ÂÁ_Ï_ÌÌ_È_ËÂÌÚ_2-2" data-name="¡ÂÁ˚ÏˇÌÌ˚È „‡‰ËÂÌÚ 2" x1="1894.95" x2="1954.9" xlink:href="#_ÂÁ_Ï_ÌÌ_È_ËÂÌÚ_2"/>
    <linearGradient id="_ÂÁ_Ï_ÌÌ_È_ËÂÌÚ_2-3" data-name="¡ÂÁ˚ÏˇÌÌ˚È „‡‰ËÂÌÚ 2" x1="1505.39" y1="1374.85" x2="1576.86" y2="1374.85" xlink:href="#_ÂÁ_Ï_ÌÌ_È_ËÂÌÚ_2"/>
    <linearGradient id="_ÂÁ_Ï_ÌÌ_È_ËÂÌÚ_2-4" data-name="¡ÂÁ˚ÏˇÌÌ˚È „‡‰ËÂÌÚ 2" x1="1495.96" y1="1222.4" x2="1684.23" y2="1222.4" gradientTransform="translate(3180.19 2444.81) rotate(-180)" xlink:href="#_ÂÁ_Ï_ÌÌ_È_ËÂÌÚ_2"/>
    <linearGradient id="_ÂÁ_Ï_ÌÌ_È_ËÂÌÚ_2-5" data-name="¡ÂÁ˚ÏˇÌÌ˚È „‡‰ËÂÌÚ 2" x1="1697.83" y1="1374.85" x2="1769.29" y2="1374.85" xlink:href="#_ÂÁ_Ï_ÌÌ_È_ËÂÌÚ_2"/>
    <linearGradient id="_ÂÁ_Ï_ÌÌ_È_ËÂÌÚ_2-6" data-name="¡ÂÁ˚ÏˇÌÌ˚È „‡‰ËÂÌÚ 2" x1="1716.13" y1="990.52" x2="1995.89" y2="990.52" xlink:href="#_ÂÁ_Ï_ÌÌ_È_ËÂÌÚ_2"/>
    <linearGradient id="_ÂÁ_Ï_ÌÌ_È_ËÂÌÚ_6" data-name="¡ÂÁ˚ÏˇÌÌ˚È „‡‰ËÂÌÚ 6" x1="1588.58" y1="742.76" x2="1887.3" y2="742.76" gradientUnits="userSpaceOnUse">
      <stop offset="0" stop-color="#ffd000"/>
      <stop offset="1" stop-color="#ff7400"/>
    </linearGradient>
    <linearGradient id="_ÂÁ_Ï_ÌÌ_È_ËÂÌÚ_7-4" data-name="¡ÂÁ˚ÏˇÌÌ˚È „‡‰ËÂÌÚ 7" x1="1453.54" y1="939.34" x2="1758.74" y2="939.34" gradientTransform="translate(3100.91) rotate(-180) scale(1 -1)" xlink:href="#_ÂÁ_Ï_ÌÌ_È_ËÂÌÚ_7"/>
    <linearGradient id="_ÂÁ_Ï_ÌÌ_È_ËÂÌÚ_7-5" data-name="¡ÂÁ˚ÏˇÌÌ˚È „‡‰ËÂÌÚ 7" x1="1898.27" y1="1491" x2="2091.66" y2="1491" gradientTransform="translate(2883.41) rotate(-180) scale(1 -1)" xlink:href="#_ÂÁ_Ï_ÌÌ_È_ËÂÌÚ_7"/>
    <linearGradient id="_ÂÁ_Ï_ÌÌ_È_ËÂÌÚ_2-7" data-name="¡ÂÁ˚ÏˇÌÌ˚È „‡‰ËÂÌÚ 2" x1="1874.9" y1="1356.35" x2="1970.88" y2="1356.35" gradientTransform="translate(2883.41) rotate(-180) scale(1 -1)" xlink:href="#_ÂÁ_Ï_ÌÌ_È_ËÂÌÚ_2"/>
    <linearGradient id="_ÂÁ_Ï_ÌÌ_È_ËÂÌÚ_7-6" data-name="¡ÂÁ˚ÏˇÌÌ˚È „‡‰ËÂÌÚ 7" x1="1928.03" y1="1356.02" x2="2077.8" y2="1356.02" gradientTransform="translate(2883.41) rotate(-180) scale(1 -1)" xlink:href="#_ÂÁ_Ï_ÌÌ_È_ËÂÌÚ_7"/>
    <linearGradient id="_ÂÁ_Ï_ÌÌ_È_ËÂÌÚ_7-7" data-name="¡ÂÁ˚ÏˇÌÌ˚È „‡‰ËÂÌÚ 7" x1="1958.62" y1="1396.09" x2="2101.24" y2="1396.09" gradientTransform="translate(2883.41) rotate(-180) scale(1 -1)" xlink:href="#_ÂÁ_Ï_ÌÌ_È_ËÂÌÚ_7"/>
    <linearGradient id="_ÂÁ_Ï_ÌÌ_È_ËÂÌÚ_2-8" data-name="¡ÂÁ˚ÏˇÌÌ˚È „‡‰ËÂÌÚ 2" x1="1912.73" y1="1437.92" x2="2082.63" y2="1437.92" gradientTransform="translate(2883.41) rotate(-180) scale(1 -1)" xlink:href="#_ÂÁ_Ï_ÌÌ_È_ËÂÌÚ_2"/>
    <linearGradient id="_ÂÁ_Ï_ÌÌ_È_ËÂÌÚ_7-8" data-name="¡ÂÁ˚ÏˇÌÌ˚È „‡‰ËÂÌÚ 7" x1="1853.78" y1="1437.58" x2="1958.58" y2="1437.58" gradientTransform="translate(2883.41) rotate(-180) scale(1 -1)" xlink:href="#_ÂÁ_Ï_ÌÌ_È_ËÂÌÚ_7"/>
  </defs>
  <g>
    <rect class="cls-13" x="718.48" y="1522.29" width="1289.31" height="9.79"/>
    <g>
      <path class="cls-33" d="m1509.54,175.82c207.01,59.62,554.63,243.78,539,666.78-15.63,423-384.71,204.84-661.92,587.04-206.68,284.95-1071.84-104.67-561-941.8,203.4-333.33,504.28-363.76,683.93-312.02Z"/>
      <path class="cls-25" d="m1695,1262.33c-183.14,55.87-207.95,138.45-206.69,211.6,1.44,82.94,326.43,42.65,462.58-177.16,136.15-219.81-159.11-63.97-255.89-34.45Z"/>
    </g>
    <g class="cls-2">
      <g>
        <g>
          <g>
            <polygon class="cls-13" points="557.57 478.02 557.57 425.35 644.94 425.35 644.94 173.63 669.01 173.63 669.01 425.35 763.11 425.35 763.11 478.02 813.51 478.02 813.51 1533.44 450.04 1533.44 450.04 478.02 557.57 478.02"/>
            <rect class="cls-14" x="450.04" y="478.02" width="50.4" height="949.39" transform="translate(950.47 1905.43) rotate(180)"/>
          </g>
          <g>
            <rect class="cls-13" x="631.77" y="729.43" width="363.47" height="804.01" transform="translate(1627.02 2262.86) rotate(180)"/>
            <rect class="cls-14" x="631.77" y="729.43" width="50.4" height="804.01" transform="translate(1313.94 2262.86) rotate(180)"/>
            <rect class="cls-14" x="892.38" y="763.68" width="52.16" height="21.65" transform="translate(1836.91 1549.01) rotate(180)"/>
            <rect class="cls-14" x="804.56" y="763.68" width="52.16" height="21.65" transform="translate(1661.27 1549.01) rotate(180)"/>
            <rect class="cls-14" x="892.38" y="842.5" width="52.16" height="21.65" transform="translate(1836.91 1706.65) rotate(180)"/>
            <rect class="cls-14" x="804.56" y="842.5" width="52.16" height="21.65" transform="translate(1661.27 1706.65) rotate(180)"/>
            <rect class="cls-14" x="716.75" y="842.5" width="52.16" height="21.65" transform="translate(1485.65 1706.65) rotate(180)"/>
            <rect class="cls-14" x="892.38" y="921.32" width="52.16" height="21.65" transform="translate(1836.91 1864.29) rotate(180)"/>
            <rect class="cls-14" x="716.75" y="921.32" width="52.16" height="21.65" transform="translate(1485.65 1864.29) rotate(180)"/>
            <rect class="cls-14" x="804.56" y="960.73" width="52.16" height="21.65" transform="translate(1661.27 1943.1) rotate(180)"/>
            <rect class="cls-14" x="892.38" y="1000.14" width="52.16" height="21.65" transform="translate(1836.91 2021.92) rotate(180)"/>
            <rect class="cls-14" x="804.56" y="1039.54" width="52.16" height="21.65" transform="translate(1661.27 2100.74) rotate(180)"/>
            <rect class="cls-14" x="892.38" y="1078.96" width="52.16" height="21.65" transform="translate(1836.91 2179.56) rotate(180)"/>
            <rect class="cls-14" x="716.75" y="1078.96" width="52.16" height="21.65" transform="translate(1485.65 2179.56) rotate(180)"/>
            <rect class="cls-14" x="892.38" y="1151.79" width="52.16" height="21.65" transform="translate(1836.91 2325.23) rotate(180)"/>
            <rect class="cls-14" x="804.56" y="1151.79" width="52.16" height="21.65" transform="translate(1661.27 2325.23) rotate(180)"/>
            <rect class="cls-14" x="892.38" y="1230.61" width="52.16" height="21.65" transform="translate(1836.91 2482.86) rotate(180)"/>
            <rect class="cls-14" x="804.56" y="1230.61" width="52.16" height="21.65" transform="translate(1661.27 2482.86) rotate(180)"/>
            <rect class="cls-14" x="716.75" y="1230.61" width="52.16" height="21.65" transform="translate(1485.65 2482.86) rotate(180)"/>
            <rect class="cls-14" x="892.38" y="1309.43" width="52.16" height="21.64" transform="translate(1836.91 2640.5) rotate(180)"/>
            <rect class="cls-14" x="716.75" y="1309.43" width="52.16" height="21.64" transform="translate(1485.65 2640.5) rotate(180)"/>
            <rect class="cls-14" x="804.56" y="1348.83" width="52.16" height="21.65" transform="translate(1661.27 2719.32) rotate(180)"/>
            <rect class="cls-14" x="716.75" y="1348.83" width="52.16" height="21.65" transform="translate(1485.65 2719.32) rotate(180)"/>
            <rect class="cls-14" x="892.38" y="1388.25" width="52.16" height="21.65" transform="translate(1836.91 2798.14) rotate(180)"/>
            <rect class="cls-14" x="804.56" y="1427.65" width="52.16" height="21.65" transform="translate(1661.27 2876.96) rotate(180)"/>
            <rect class="cls-14" x="892.38" y="1467.07" width="52.16" height="21.65" transform="translate(1836.91 2955.78) rotate(180)"/>
            <rect class="cls-14" x="716.75" y="1467.07" width="52.16" height="21.65" transform="translate(1485.65 2955.78) rotate(180)"/>
          </g>
          <g>
            <rect class="cls-13" x="1501.45" y="729.42" width="363.47" height="804.01" transform="translate(3366.38 2262.86) rotate(180)"/>
            <rect class="cls-14" x="1501.45" y="729.42" width="50.4" height="804.01" transform="translate(3053.31 2262.86) rotate(180)"/>
          </g>
          <g>
            <rect class="cls-13" x="985.13" y="347.01" width="487.68" height="1186.43" transform="translate(2457.94 1880.44) rotate(180)"/>
            <rect class="cls-14" x="985.13" y="347.01" width="50.4" height="1186.43" transform="translate(2020.65 1880.44) rotate(180)"/>
            <rect class="cls-14" x="1345.27" y="403.83" width="76.16" height="31.61" transform="translate(2766.71 839.27) rotate(180)"/>
            <rect class="cls-14" x="1217.04" y="403.83" width="76.16" height="31.61" transform="translate(2510.24 839.27) rotate(180)"/>
            <rect class="cls-14" x="1345.27" y="518.93" width="76.16" height="31.62" transform="translate(2766.71 1069.47) rotate(180)"/>
            <rect class="cls-14" x="1217.04" y="518.93" width="76.16" height="31.62" transform="translate(2510.24 1069.47) rotate(180)"/>
            <rect class="cls-14" x="1088.81" y="518.93" width="76.16" height="31.62" transform="translate(2253.77 1069.47) rotate(180)"/>
            <rect class="cls-14" x="1345.27" y="634.02" width="76.16" height="31.61" transform="translate(2766.71 1299.66) rotate(180)"/>
            <rect class="cls-14" x="1088.81" y="634.02" width="76.16" height="31.61" transform="translate(2253.77 1299.66) rotate(180)"/>
            <rect class="cls-14" x="1217.04" y="691.57" width="76.16" height="31.61" transform="translate(2510.24 1414.76) rotate(180)"/>
            <rect class="cls-14" x="1345.27" y="749.12" width="76.16" height="31.62" transform="translate(2766.71 1529.86) rotate(180)"/>
            <rect class="cls-14" x="1217.04" y="806.67" width="76.16" height="31.61" transform="translate(2510.24 1644.95) rotate(180)"/>
            <rect class="cls-14" x="1345.27" y="864.22" width="76.16" height="31.61" transform="translate(2766.71 1760.05) rotate(180)"/>
            <rect class="cls-14" x="1088.81" y="864.22" width="76.16" height="31.61" transform="translate(2253.77 1760.05) rotate(180)"/>
            <rect class="cls-14" x="1345.27" y="970.58" width="76.16" height="31.61" transform="translate(2766.71 1972.77) rotate(180)"/>
            <rect class="cls-14" x="1217.04" y="970.58" width="76.16" height="31.61" transform="translate(2510.24 1972.77) rotate(180)"/>
            <rect class="cls-14" x="1345.27" y="1085.68" width="76.16" height="31.61" transform="translate(2766.71 2202.97) rotate(180)"/>
            <rect class="cls-14" x="1217.04" y="1085.68" width="76.16" height="31.61" transform="translate(2510.24 2202.97) rotate(180)"/>
            <rect class="cls-14" x="1088.81" y="1085.68" width="76.16" height="31.61" transform="translate(2253.77 2202.97) rotate(180)"/>
            <rect class="cls-14" x="1345.27" y="1200.78" width="76.16" height="31.61" transform="translate(2766.71 2433.16) rotate(180)"/>
            <rect class="cls-14" x="1088.81" y="1200.78" width="76.16" height="31.61" transform="translate(2253.77 2433.16) rotate(180)"/>
            <rect class="cls-14" x="1217.04" y="1258.33" width="76.16" height="31.61" transform="translate(2510.24 2548.26) rotate(180)"/>
            <rect class="cls-14" x="1088.81" y="1258.33" width="76.16" height="31.61" transform="translate(2253.77 2548.26) rotate(180)"/>
            <rect class="cls-14" x="1345.27" y="1315.88" width="76.16" height="31.61" transform="translate(2766.71 2663.36) rotate(180)"/>
            <rect class="cls-14" x="1217.04" y="1373.42" width="76.16" height="31.62" transform="translate(2510.24 2778.46) rotate(180)"/>
            <rect class="cls-14" x="1345.27" y="1430.97" width="76.16" height="31.61" transform="translate(2766.71 2893.55) rotate(180)"/>
            <rect class="cls-14" x="1088.81" y="1430.97" width="76.16" height="31.61" transform="translate(2253.77 2893.55) rotate(180)"/>
          </g>
          <g>
            <rect class="cls-13" x="1751.87" y="435.44" width="477.98" height="1097.99" transform="translate(3981.72 1968.88) rotate(180)"/>
            <rect class="cls-14" x="1751.87" y="435.44" width="49.4" height="1097.99" transform="translate(3553.13 1968.88) rotate(180)"/>
            <rect class="cls-14" x="2104.85" y="488.03" width="74.65" height="29.25" transform="translate(4284.36 1005.31) rotate(180)"/>
            <rect class="cls-14" x="1979.17" y="488.03" width="74.65" height="29.25" transform="translate(4032.98 1005.31) rotate(180)"/>
            <rect class="cls-14" x="2104.85" y="594.55" width="74.65" height="29.25" transform="translate(4284.36 1218.35) rotate(180)"/>
            <rect class="cls-14" x="1979.17" y="594.55" width="74.65" height="29.25" transform="translate(4032.98 1218.35) rotate(180)"/>
            <rect class="cls-14" x="1853.48" y="594.55" width="74.65" height="29.25" transform="translate(3781.61 1218.35) rotate(180)"/>
            <rect class="cls-14" x="2104.85" y="701.06" width="74.65" height="29.26" transform="translate(4284.36 1431.39) rotate(180)"/>
            <rect class="cls-14" x="1853.48" y="701.06" width="74.65" height="29.26" transform="translate(3781.61 1431.39) rotate(180)"/>
            <rect class="cls-14" x="1979.17" y="754.32" width="74.65" height="29.25" transform="translate(4032.98 1537.9) rotate(180)"/>
            <rect class="cls-14" x="2104.85" y="807.58" width="74.65" height="29.25" transform="translate(4284.36 1644.42) rotate(180)"/>
            <rect class="cls-14" x="1979.17" y="860.84" width="74.65" height="29.25" transform="translate(4032.98 1750.94) rotate(180)"/>
            <rect class="cls-14" x="2104.85" y="914.1" width="74.65" height="29.25" transform="translate(4284.36 1857.46) rotate(180)"/>
            <rect class="cls-14" x="1853.48" y="914.1" width="74.65" height="29.25" transform="translate(3781.61 1857.46) rotate(180)"/>
            <rect class="cls-14" x="2104.85" y="1012.54" width="74.65" height="29.25" transform="translate(4284.36 2054.33) rotate(180)"/>
            <rect class="cls-14" x="1979.17" y="1012.54" width="74.65" height="29.25" transform="translate(4032.98 2054.33) rotate(180)"/>
            <rect class="cls-14" x="2104.85" y="1119.05" width="74.65" height="29.25" transform="translate(4284.36 2267.36) rotate(180)"/>
            <rect class="cls-14" x="1979.17" y="1119.05" width="74.65" height="29.25" transform="translate(4032.98 2267.36) rotate(180)"/>
            <rect class="cls-14" x="1853.48" y="1119.05" width="74.65" height="29.25" transform="translate(3781.61 2267.36) rotate(180)"/>
            <rect class="cls-14" x="2104.85" y="1225.57" width="74.65" height="29.25" transform="translate(4284.36 2480.4) rotate(180)"/>
            <rect class="cls-14" x="1853.48" y="1225.57" width="74.65" height="29.25" transform="translate(3781.61 2480.4) rotate(180)"/>
            <rect class="cls-14" x="1979.17" y="1278.83" width="74.65" height="29.25" transform="translate(4032.98 2586.92) rotate(180)"/>
            <rect class="cls-14" x="1853.48" y="1278.83" width="74.65" height="29.25" transform="translate(3781.61 2586.92) rotate(180)"/>
            <rect class="cls-14" x="2104.85" y="1332.09" width="74.65" height="29.25" transform="translate(4284.36 2693.43) rotate(180)"/>
            <rect class="cls-14" x="1979.17" y="1385.35" width="74.65" height="29.25" transform="translate(4032.98 2799.95) rotate(180)"/>
            <rect class="cls-14" x="2104.85" y="1438.61" width="74.65" height="29.26" transform="translate(4284.36 2906.47) rotate(180)"/>
            <rect class="cls-14" x="1853.48" y="1438.61" width="74.65" height="29.26" transform="translate(3781.61 2906.47) rotate(180)"/>
          </g>
          <g>
            <rect class="cls-13" x="207.16" y="784.53" width="307.84" height="748.91" transform="translate(722.17 2317.96) rotate(180)"/>
            <rect class="cls-14" x="207.16" y="784.53" width="31.82" height="748.91" transform="translate(446.14 2317.96) rotate(180)"/>
            <rect class="cls-14" x="434.5" y="820.4" width="48.08" height="19.95" transform="translate(917.07 1660.74) rotate(180)"/>
            <rect class="cls-14" x="353.55" y="820.4" width="48.08" height="19.95" transform="translate(755.18 1660.74) rotate(180)"/>
            <rect class="cls-14" x="434.5" y="893.05" width="48.08" height="19.96" transform="translate(917.07 1806.05) rotate(180)"/>
            <rect class="cls-14" x="353.55" y="893.05" width="48.08" height="19.96" transform="translate(755.18 1806.05) rotate(180)"/>
            <rect class="cls-14" x="272.61" y="893.05" width="48.08" height="19.96" transform="translate(593.3 1806.05) rotate(180)"/>
            <rect class="cls-14" x="434.5" y="965.7" width="48.08" height="19.95" transform="translate(917.07 1951.36) rotate(180)"/>
            <rect class="cls-14" x="272.61" y="965.7" width="48.08" height="19.95" transform="translate(593.3 1951.36) rotate(180)"/>
            <rect class="cls-14" x="353.55" y="1002.03" width="48.08" height="19.95" transform="translate(755.18 2024.01) rotate(180)"/>
            <rect class="cls-14" x="434.5" y="1038.35" width="48.08" height="19.95" transform="translate(917.07 2096.66) rotate(180)"/>
            <rect class="cls-14" x="353.55" y="1074.68" width="48.08" height="19.95" transform="translate(755.18 2169.32) rotate(180)"/>
            <rect class="cls-14" x="434.5" y="1111.01" width="48.08" height="19.95" transform="translate(917.07 2241.97) rotate(180)"/>
            <rect class="cls-14" x="272.61" y="1111.01" width="48.08" height="19.95" transform="translate(593.3 2241.97) rotate(180)"/>
            <rect class="cls-14" x="434.5" y="1178.14" width="48.08" height="19.95" transform="translate(917.07 2376.24) rotate(180)"/>
            <rect class="cls-14" x="353.55" y="1178.14" width="48.08" height="19.95" transform="translate(755.18 2376.24) rotate(180)"/>
            <rect class="cls-14" x="434.5" y="1250.8" width="48.08" height="19.95" transform="translate(917.07 2521.55) rotate(180)"/>
            <rect class="cls-14" x="353.55" y="1250.8" width="48.08" height="19.95" transform="translate(755.18 2521.55) rotate(180)"/>
            <rect class="cls-14" x="272.61" y="1250.8" width="48.08" height="19.95" transform="translate(593.3 2521.55) rotate(180)"/>
            <rect class="cls-14" x="434.5" y="1323.45" width="48.08" height="19.95" transform="translate(917.07 2666.86) rotate(180)"/>
            <rect class="cls-14" x="272.61" y="1323.45" width="48.08" height="19.95" transform="translate(593.3 2666.86) rotate(180)"/>
            <rect class="cls-14" x="353.55" y="1359.78" width="48.08" height="19.95" transform="translate(755.18 2739.51) rotate(180)"/>
            <rect class="cls-14" x="272.61" y="1359.78" width="48.08" height="19.95" transform="translate(593.3 2739.51) rotate(180)"/>
            <rect class="cls-14" x="434.5" y="1396.11" width="48.08" height="19.95" transform="translate(917.07 2812.16) rotate(180)"/>
            <rect class="cls-14" x="353.55" y="1432.43" width="48.08" height="19.95" transform="translate(755.18 2884.81) rotate(180)"/>
            <rect class="cls-14" x="434.5" y="1468.76" width="48.08" height="19.95" transform="translate(917.07 2957.47) rotate(180)"/>
            <rect class="cls-14" x="272.61" y="1468.76" width="48.08" height="19.95" transform="translate(593.3 2957.47) rotate(180)"/>
          </g>
        </g>
        <g>
          <g>
            <rect class="cls-9" x="14.27" y="39.7" width="1304.61" height="1487.49"/>
            <polygon class="cls-8" points="284.63 1443.6 234 1443.6 776.79 0 827.41 0 284.63 1443.6"/>
            <polygon class="cls-8" points="889.13 1443.6 838.5 1443.6 1303.86 154.99 1303.86 258.81 889.13 1443.6"/>
          </g>
          <g>
            <rect class="cls-9" x="1325.34" y="1.1" width="1304.62" height="1487.48"/>
            <polygon class="cls-8" points="1541.51 1443.6 1440.26 1443.6 1983.04 0 2084.29 0 1541.51 1443.6"/>
            <polygon class="cls-8" points="1362.72 1443.6 1312.1 1443.6 1854.88 0 1905.51 0 1362.72 1443.6"/>
            <polygon class="cls-7" points="2193.87 1443.6 2143.24 1443.6 2608.6 154.99 2608.6 258.81 2193.87 1443.6"/>
          </g>
          <path class="cls-24" d="m2684.77,326.79v-17.02h-46.87V41.46H0v34.04h28.42v12.02h841.33v222.25H0v17.02h869.75v436.83H0v17.02h869.75v436.82H0v17.02h869.75v284.63H28.69v9.84H0v39.38h2637.9v-3.16h0v-330.69h46.87v-17.02h-46.87v-436.82h46.87v-17.02h-46.87v-436.83h46.87Zm-1351.49,453.85h406.33v436.82h-406.33v-436.82Zm0-17.02v-436.83h406.33v436.83h-406.33Zm0-453.84V87.52h406.33v222.25h-406.33Zm0,924.71h406.33v284.63h-406.19v9.84h-.14v-294.47Zm434.88,284.63v-284.63h406.33v284.63h-406.33Zm0-301.65v-436.82h406.33v436.82h-406.33Zm0-453.84v-436.83h406.33v436.83h-406.33Zm0-453.84V87.52h406.33v222.25h-406.33Zm434.87-222.25h406.34v222.25h-406.34V87.52Zm-1304.74,0h406.34v222.25h-406.34V87.52Zm0,239.27h406.34v436.83h-406.34v-436.83Zm0,453.85h406.34v436.82h-406.34v-436.82Zm0,453.84h406.34v294.47h-.16v-9.84h-406.18v-284.63Zm1711.07,294.47h-.15v-9.84h-406.18v-284.63h406.34v294.47Zm0-311.49h-406.34v-436.82h406.34v436.82Zm0-453.84h-406.34v-436.83h406.34v436.83Z"/>
        </g>
      </g>
    </g>
  </g>
  <g>
    <g>
      <path class="cls-13" d="m1898.8,299v755.98c0,14.93-12.14,27.07-27.07,27.07H819.04c-14.94,0-27.03-12.14-27.03-27.07V299.04c0-19.09,15.47-34.56,34.52-34.56h1037.7c19.09,0,34.56,15.47,34.56,34.52Z"/>
      <path class="cls-16" d="m1898.78,383.47H792v-84.45c0-19.08,15.47-34.55,34.54-34.55h1037.7c19.08,0,34.54,15.47,34.54,34.55v84.45Z"/>
      <g>
        <path class="cls-13" d="m982.36,323.97c0-10.09,8.18-18.28,18.27-18.28s18.28,8.18,18.28,18.28-8.18,18.28-18.28,18.28-18.27-8.18-18.27-18.28Z"/>
        <path class="cls-5" d="m912.03,323.97c0-10.09,8.18-18.28,18.28-18.28s18.27,8.18,18.27,18.28-8.18,18.28-18.27,18.28-18.28-8.18-18.28-18.28Z"/>
        <path class="cls-6" d="m841.69,323.97c0-10.09,8.18-18.28,18.28-18.28s18.28,8.18,18.28,18.28-8.18,18.28-18.28,18.28-18.28-8.18-18.28-18.28Z"/>
      </g>
      <polygon class="cls-6" points="1811.69 310.61 1820.74 301.56 1833.67 314.49 1846.58 301.56 1855.63 310.61 1842.71 323.53 1855.63 336.45 1846.58 345.5 1833.67 332.58 1820.74 345.5 1811.69 336.45 1824.62 323.53 1811.69 310.61"/>
    </g>
    <g>
      <rect class="cls-6" x="856.73" y="422.14" width="552.35" height="308.17"/>
      <rect class="cls-13" x="905.83" y="463.96" width="454.16" height="224.54" transform="translate(2265.82 1152.45) rotate(180)"/>
      <path class="cls-16" d="m1359.99,688.5l-71.55-103.84c-2.75-3.99-8.69-3.87-11.28.23l-39.37,62.38-31.58-33.49c-3.14-3.33-8.62-2.64-10.83,1.37l-40.36,73.36h204.98Z"/>
      <path class="cls-6" d="m1221.31,516.78c0,12.38,10.04,22.41,22.42,22.41s22.42-10.04,22.42-22.41-10.04-22.42-22.42-22.42-22.42,10.04-22.42,22.42Z"/>
      <path class="cls-6" d="m1054.64,524.57c1.15,2.42,3.64,2.74,6.01,3.18,8.48,1.6,18.44.78,27.09.94,5.26.1,10.52.04,15.78.05,5.22,2.33,10.79,4.66,16.59,4.52,6.35-.15,11.51-4,17.87-4.54,3.73-.32,14.66,1.14,11.59-6.59-3.48-8.74-23.63-6.86-30.59-9.01-3.73-1.15-6.33-1.77-10.27-2.3-4.91-.67-4.01-.85-8.39-3.62-2.14-1.35-3.23-2.13-5.44-2.87-4.12-1.38-8.48-1.22-12.44.6-4.47,2.06-6.43,6.74-11.26,8.08-4.02,1.11-21.2,1.69-16.54,11.57Z"/>
      <path class="cls-6" d="m995.83,544.15c7.44,2.43,16.42,3.1,24.17,2.35,4.46-.43,11.63-.84,14.94-4.37,2.37-2.53,2.18-6.14-.37-8.54-2.34-2.2-5.19-2.22-7.99-1.51-4.98-2.07-9.99-3.56-15.54-2.7-2.15.33-4.15,1.56-6.43,1.42-1.78-.1-3.89-1.42-5.64-1.71-2.03-.33-4.07-.43-6.01.31-9.35,3.58-4.01,12.5,2.88,14.75Z"/>
      <path class="cls-16" d="m1101.98,688.5l-44.67-79.88c-1.55-2.77-5.51-2.85-7.16-.14l-33.87,55.27-14.35-22.33c-1.76-2.74-5.85-2.48-7.25.47l-22.09,46.62-37.2-86.33c-1.49-3.47-6.47-3.31-7.73.25l-21.83,61.32v24.76h196.15Z"/>
      <g>
        <path class="cls-6" d="m930.13,674.16h-4.85v-4.86c0-.54.43-.97.97-.97s.97.43.97.97v2.92h2.91c.54,0,.97.43.97.97s-.43.97-.97.97Z"/>
        <path class="cls-6" d="m1328.03,674.16h-7.65c-.54,0-.97-.43-.97-.97s.43-.97.97-.97h7.65c.53,0,.97.43.97.97s-.44.97-.97.97Zm-15.3,0h-7.65c-.54,0-.98-.43-.98-.97s.44-.97.98-.97h7.65c.53,0,.97.43.97.97s-.44.97-.97.97Zm-15.31,0h-7.65c-.54,0-.97-.43-.97-.97s.43-.97.97-.97h7.65c.54,0,.98.43.98.97s-.44.97-.98.97Zm-15.3,0h-7.65c-.53,0-.97-.43-.97-.97s.44-.97.97-.97h7.65c.54,0,.97.43.97.97s-.43.97-.97.97Zm-15.31,0h-7.65c-.53,0-.97-.43-.97-.97s.44-.97.97-.97h7.65c.54,0,.97.43.97.97s-.43.97-.97.97Zm-15.3,0h-7.65c-.54,0-.97-.43-.97-.97s.43-.97.97-.97h7.65c.54,0,.97.43.97.97s-.43.97-.97.97Zm-15.31,0h-7.65c-.54,0-.97-.43-.97-.97s.43-.97.97-.97h7.65c.54,0,.97.43.97.97s-.43.97-.97.97Zm-15.3,0h-7.65c-.54,0-.97-.43-.97-.97s.43-.97.97-.97h7.65c.53,0,.97.43.97.97s-.44.97-.97.97Zm-15.31,0h-7.65c-.54,0-.98-.43-.98-.97s.44-.97.98-.97h7.65c.54,0,.97.43.97.97s-.43.97-.97.97Zm-15.3,0h-7.65c-.54,0-.98-.43-.98-.97s.44-.97.98-.97h7.65c.53,0,.97.43.97.97s-.44.97-.97.97Zm-15.31,0h-7.65c-.53,0-.97-.43-.97-.97s.44-.97.97-.97h7.65c.54,0,.97.43.97.97s-.43.97-.97.97Zm-15.31,0h-7.65c-.53,0-.97-.43-.97-.97s.44-.97.97-.97h7.65c.54,0,.97.43.97.97s-.43.97-.97.97Zm-15.3,0h-7.65c-.54,0-.97-.43-.97-.97s.43-.97.97-.97h7.65c.54,0,.97.43.97.97s-.43.97-.97.97Zm-15.31,0h-7.65c-.54,0-.97-.43-.97-.97s.43-.97.97-.97h7.65c.54,0,.97.43.97.97s-.43.97-.97.97Zm-15.3,0h-7.65c-.54,0-.97-.43-.97-.97s.43-.97.97-.97h7.65c.53,0,.97.43.97.97s-.44.97-.97.97Zm-15.31,0h-7.65c-.53,0-.97-.43-.97-.97s.44-.97.97-.97h7.65c.53,0,.97.43.97.97s-.44.97-.97.97Zm-15.31,0h-7.65c-.54,0-.98-.43-.98-.97s.44-.97.98-.97h7.65c.54,0,.98.43.98.97s-.44.97-.98.97Zm-15.3,0h-7.65c-.53,0-.97-.43-.97-.97s.44-.97.97-.97h7.65c.53,0,.97.43.97.97s-.44.97-.97.97Zm-15.31,0h-7.65c-.53,0-.97-.43-.97-.97s.44-.97.97-.97h7.65c.54,0,.97.43.97.97s-.43.97-.97.97Zm-15.31,0h-7.65c-.54,0-.97-.43-.97-.97s.43-.97.97-.97h7.65c.54,0,.97.43.97.97s-.43.97-.97.97Zm-15.3,0h-7.65c-.53,0-.97-.43-.97-.97s.44-.97.97-.97h7.65c.54,0,.97.43.97.97s-.43.97-.97.97Zm-15.3,0h-7.65c-.54,0-.97-.43-.97-.97s.43-.97.97-.97h7.65c.53,0,.97.43.97.97s-.44.97-.97.97Zm-15.31,0h-7.65c-.54,0-.97-.43-.97-.97s.43-.97.97-.97h7.65c.54,0,.97.43.97.97s-.43.97-.97.97Zm-15.3,0h-7.65c-.54,0-.98-.43-.98-.97s.44-.97.98-.97h7.65c.53,0,.96.43.96.97s-.43.97-.96.97Zm-15.31,0h-7.65c-.54,0-.97-.43-.97-.97s.43-.97.97-.97h7.65c.53,0,.97.43.97.97s-.44.97-.97.97Zm-15.31,0h-7.65c-.53,0-.97-.43-.97-.97s.44-.97.97-.97h7.65c.54,0,.97.43.97.97s-.43.97-.97.97Z"/>
        <path class="cls-6" d="m1340.54,674.16h-4.85c-.54,0-.97-.43-.97-.97s.43-.97.97-.97h2.91v-2.92c0-.54.44-.97.97-.97s.97.43.97.97v4.86Z"/>
        <path class="cls-6" d="m1339.57,662.18c-.53,0-.97-.43-.97-.97v-8.09c0-.54.44-.97.97-.97s.97.43.97.97v8.09c0,.54-.43.97-.97.97Zm0-16.19c-.53,0-.97-.44-.97-.97v-8.1c0-.54.44-.97.97-.97s.97.43.97.97v8.1c0,.53-.43.97-.97.97Zm0-16.19c-.53,0-.97-.43-.97-.97v-8.09c0-.54.44-.97.97-.97s.97.44.97.97v8.09c0,.54-.43.97-.97.97Zm0-16.19c-.53,0-.97-.43-.97-.97v-8.1c0-.54.44-.97.97-.97s.97.43.97.97v8.1c0,.54-.43.97-.97.97Zm0-16.19c-.53,0-.97-.43-.97-.97v-8.09c0-.54.44-.97.97-.97s.97.43.97.97v8.09c0,.54-.43.97-.97.97Zm0-16.19c-.53,0-.97-.43-.97-.97v-8.1c0-.53.44-.97.97-.97s.97.44.97.97v8.1c0,.54-.43.97-.97.97Zm0-16.19c-.53,0-.97-.44-.97-.97v-8.1c0-.54.44-.97.97-.97s.97.43.97.97v8.1c0,.53-.43.97-.97.97Zm0-16.19c-.53,0-.97-.43-.97-.97v-8.09c0-.54.44-.97.97-.97s.97.44.97.97v8.09c0,.54-.43.97-.97.97Zm0-16.19c-.53,0-.97-.44-.97-.97v-8.09c0-.53.44-.97.97-.97s.97.44.97.97v8.09c0,.54-.43.97-.97.97Zm0-16.19c-.53,0-.97-.43-.97-.97v-8.09c0-.54.44-.97.97-.97s.97.44.97.97v8.09c0,.54-.43.97-.97.97Zm0-16.19c-.53,0-.97-.43-.97-.97v-8.1c0-.54.44-.97.97-.97s.97.43.97.97v8.1c0,.54-.43.97-.97.97Z"/>
        <path class="cls-6" d="m1339.57,484.12c-.53,0-.97-.44-.97-.97v-2.91h-2.91c-.54,0-.97-.44-.97-.97s.43-.97.97-.97h4.85v4.86c0,.54-.43.97-.97.97Z"/>
        <path class="cls-6" d="m1328.03,480.23h-7.65c-.54,0-.97-.44-.97-.97s.43-.97.97-.97h7.65c.53,0,.97.44.97.97s-.44.97-.97.97Zm-15.3,0h-7.65c-.54,0-.98-.44-.98-.97s.44-.97.98-.97h7.65c.53,0,.97.44.97.97s-.44.97-.97.97Zm-15.31,0h-7.65c-.54,0-.97-.44-.97-.97s.43-.97.97-.97h7.65c.54,0,.98.44.98.97s-.44.97-.98.97Zm-15.3,0h-7.65c-.53,0-.97-.44-.97-.97s.44-.97.97-.97h7.65c.54,0,.97.44.97.97s-.43.97-.97.97Zm-15.31,0h-7.65c-.53,0-.97-.44-.97-.97s.44-.97.97-.97h7.65c.54,0,.97.44.97.97s-.43.97-.97.97Zm-15.3,0h-7.65c-.54,0-.97-.44-.97-.97s.43-.97.97-.97h7.65c.54,0,.97.44.97.97s-.43.97-.97.97Zm-15.31,0h-7.65c-.54,0-.97-.44-.97-.97s.43-.97.97-.97h7.65c.54,0,.97.44.97.97s-.43.97-.97.97Zm-15.3,0h-7.65c-.54,0-.97-.44-.97-.97s.43-.97.97-.97h7.65c.53,0,.97.44.97.97s-.44.97-.97.97Zm-15.31,0h-7.65c-.54,0-.98-.44-.98-.97s.44-.97.98-.97h7.65c.54,0,.97.44.97.97s-.43.97-.97.97Zm-15.3,0h-7.65c-.54,0-.98-.44-.98-.97s.44-.97.98-.97h7.65c.53,0,.97.44.97.97s-.44.97-.97.97Zm-15.31,0h-7.65c-.53,0-.97-.44-.97-.97s.44-.97.97-.97h7.65c.53,0,.97.44.97.97s-.44.97-.97.97Zm-15.31,0h-7.65c-.53,0-.97-.44-.97-.97s.44-.97.97-.97h7.65c.54,0,.97.44.97.97s-.43.97-.97.97Zm-15.3,0h-7.65c-.54,0-.97-.44-.97-.97s.43-.97.97-.97h7.65c.54,0,.97.44.97.97s-.43.97-.97.97Zm-15.31,0h-7.65c-.54,0-.97-.44-.97-.97s.43-.97.97-.97h7.65c.54,0,.97.44.97.97s-.43.97-.97.97Zm-15.3,0h-7.65c-.54,0-.97-.44-.97-.97s.43-.97.97-.97h7.65c.53,0,.97.44.97.97s-.44.97-.97.97Zm-15.31,0h-7.65c-.54,0-.97-.44-.97-.97s.43-.97.97-.97h7.65c.53,0,.97.44.97.97s-.44.97-.97.97Zm-15.31,0h-7.65c-.54,0-.98-.44-.98-.97s.44-.97.98-.97h7.65c.54,0,.98.44.98.97s-.44.97-.98.97Zm-15.3,0h-7.65c-.53,0-.97-.44-.97-.97s.44-.97.97-.97h7.65c.53,0,.97.44.97.97s-.44.97-.97.97Zm-15.31,0h-7.65c-.53,0-.97-.44-.97-.97s.44-.97.97-.97h7.65c.54,0,.97.44.97.97s-.43.97-.97.97Zm-15.31,0h-7.65c-.54,0-.97-.44-.97-.97s.43-.97.97-.97h7.65c.54,0,.97.44.97.97s-.43.97-.97.97Zm-15.3,0h-7.65c-.53,0-.97-.44-.97-.97s.44-.97.97-.97h7.65c.54,0,.97.44.97.97s-.43.97-.97.97Zm-15.3,0h-7.65c-.54,0-.97-.44-.97-.97s.43-.97.97-.97h7.65c.53,0,.97.44.97.97s-.44.97-.97.97Zm-15.31,0h-7.65c-.54,0-.97-.44-.97-.97s.43-.97.97-.97h7.65c.54,0,.97.44.97.97s-.43.97-.97.97Zm-15.3,0h-7.65c-.54,0-.98-.44-.98-.97s.44-.97.98-.97h7.65c.53,0,.96.44.96.97s-.43.97-.96.97Zm-15.31,0h-7.65c-.54,0-.97-.44-.97-.97s.43-.97.97-.97h7.65c.53,0,.97.44.97.97s-.44.97-.97.97Zm-15.31,0h-7.65c-.53,0-.97-.44-.97-.97s.44-.97.97-.97h7.65c.54,0,.97.44.97.97s-.43.97-.97.97Z"/>
        <path class="cls-6" d="m926.25,484.12c-.54,0-.97-.44-.97-.97v-4.86h4.85c.54,0,.97.44.97.97s-.43.97-.97.97h-2.91v2.91c0,.54-.43.97-.97.97Z"/>
        <path class="cls-6" d="m926.25,662.18c-.54,0-.97-.43-.97-.97v-8.09c0-.54.43-.97.97-.97s.97.43.97.97v8.09c0,.54-.43.97-.97.97Zm0-16.19c-.54,0-.97-.44-.97-.97v-8.1c0-.54.43-.97.97-.97s.97.43.97.97v8.1c0,.53-.43.97-.97.97Zm0-16.19c-.54,0-.97-.43-.97-.97v-8.09c0-.54.43-.97.97-.97s.97.44.97.97v8.09c0,.54-.43.97-.97.97Zm0-16.19c-.54,0-.97-.43-.97-.97v-8.1c0-.54.43-.97.97-.97s.97.43.97.97v8.1c0,.54-.43.97-.97.97Zm0-16.19c-.54,0-.97-.43-.97-.97v-8.09c0-.54.43-.97.97-.97s.97.43.97.97v8.09c0,.54-.43.97-.97.97Zm0-16.19c-.54,0-.97-.43-.97-.97v-8.1c0-.53.43-.97.97-.97s.97.44.97.97v8.1c0,.54-.43.97-.97.97Zm0-16.19c-.54,0-.97-.44-.97-.97v-8.1c0-.54.43-.97.97-.97s.97.43.97.97v8.1c0,.53-.43.97-.97.97Zm0-16.19c-.54,0-.97-.43-.97-.97v-8.09c0-.54.43-.97.97-.97s.97.44.97.97v8.09c0,.54-.43.97-.97.97Zm0-16.19c-.54,0-.97-.44-.97-.97v-8.09c0-.53.43-.97.97-.97s.97.44.97.97v8.09c0,.54-.43.97-.97.97Zm0-16.19c-.54,0-.97-.43-.97-.97v-8.09c0-.54.43-.97.97-.97s.97.44.97.97v8.09c0,.54-.43.97-.97.97Zm0-16.19c-.54,0-.97-.43-.97-.97v-8.1c0-.54.43-.97.97-.97s.97.43.97.97v8.1c0,.54-.43.97-.97.97Z"/>
      </g>
      <rect class="cls-6" x="1127.19" y="473.54" width="11.44" height="11.44"/>
      <rect class="cls-6" x="1127.19" y="667.47" width="11.44" height="11.44"/>
      <rect class="cls-6" x="1333.85" y="577.33" width="11.44" height="11.44"/>
      <rect class="cls-6" x="920.53" y="577.33" width="11.44" height="11.44"/>
      <rect class="cls-6" x="920.53" y="473.54" width="11.44" height="11.44"/>
      <rect class="cls-6" x="920.53" y="666.35" width="11.44" height="11.44"/>
      <rect class="cls-6" x="1333.84" y="473.54" width="11.44" height="11.44"/>
      <rect class="cls-6" x="1333.84" y="666.35" width="11.44" height="11.44"/>
    </g>
    <g>
      <polygon class="cls-6" points="1293.35 850.66 1293.35 866 1493.12 866 1493.35 850.66 1293.35 850.66"/>
      <polygon class="cls-6" points="1293.35 896.83 1293.35 912.17 1717.21 912.17 1717.44 896.83 1293.35 896.83"/>
      <polygon class="cls-6" points="1293.35 943 1293.35 958.35 1628.45 958.35 1628.68 943 1293.35 943"/>
      <polygon class="cls-6" points="1514.02 866 1575.69 866 1575.92 850.66 1514.25 850.66 1514.02 866"/>
    </g>
    <g>
      <polygon class="cls-6" points="1469.3 566.37 1469.3 584.45 1645.25 584.45 1645.45 566.37 1469.3 566.37"/>
      <polygon class="cls-6" points="1469.3 620.77 1469.3 638.85 1842.62 638.85 1842.82 620.77 1469.3 620.77"/>
      <polygon class="cls-6" points="1469.3 675.17 1469.3 693.25 1764.44 693.25 1764.65 675.17 1469.3 675.17"/>
      <polygon class="cls-6" points="1663.66 584.45 1717.97 584.45 1718.17 566.37 1663.86 566.37 1663.66 584.45"/>
    </g>
  </g>
  <g>
    <g>
      <path class="cls-3" d="m1260.73,792.81v410.21c0,4.7-3.82,8.52-8.52,8.52h-331.12c-4.7,0-8.51-3.82-8.51-8.52v-410.2c0-6,4.87-10.87,10.86-10.87h326.42c6.01,0,10.87,4.87,10.87,10.86Z"/>
      <path class="cls-16" d="m1260.72,819.38h-348.14v-26.56c0-6,4.86-10.87,10.87-10.87h326.41c6,0,10.87,4.86,10.87,10.87v26.56Z"/>
      <g>
        <path class="cls-13" d="m972.46,800.67c0-3.17,2.57-5.75,5.75-5.75s5.75,2.58,5.75,5.75-2.57,5.75-5.75,5.75-5.75-2.58-5.75-5.75Z"/>
        <path class="cls-5" d="m950.33,800.67c0-3.17,2.58-5.75,5.75-5.75s5.75,2.58,5.75,5.75-2.57,5.75-5.75,5.75-5.75-2.58-5.75-5.75Z"/>
        <path class="cls-6" d="m928.21,800.67c0-3.17,2.58-5.75,5.75-5.75s5.75,2.58,5.75,5.75-2.57,5.75-5.75,5.75-5.75-2.58-5.75-5.75Z"/>
      </g>
      <polygon class="cls-6" points="1233.33 796.46 1236.17 793.62 1240.24 797.69 1244.31 793.62 1247.15 796.46 1243.09 800.53 1247.15 804.6 1244.31 807.44 1240.24 803.38 1236.17 807.44 1233.33 804.6 1237.39 800.53 1233.33 796.46"/>
    </g>
    <g>
      <g>
        <polygon class="cls-6" points="1010.57 1001.97 1010.32 994.7 949.41 994.7 949.66 1001.97 1010.57 1001.97"/>
        <polygon class="cls-6" points="1078.45 980.08 1078.2 972.8 949.41 972.8 949.66 980.08 1078.45 980.08"/>
        <g>
          <polygon class="cls-5" points="1053 958.19 1052.75 950.91 949.41 950.91 949.66 958.19 1053 958.19"/>
          <path class="cls-5" d="m1053.59,958.58h-104.49l-.29-8.07h104.49l.28,8.07Zm-103.36-.79h102.18l-.23-6.48h-102.18l.23,6.48Z"/>
        </g>
        <polygon class="cls-6" points="1039.16 1001.97 1038.91 994.7 1020.43 994.7 1020.68 1001.97 1039.16 1001.97"/>
        <polygon class="cls-6" points="1010.57 937.09 1010.32 929.81 949.41 929.81 949.66 937.09 1010.57 937.09"/>
        <polygon class="cls-6" points="1078.46 915.2 1078.2 907.92 949.41 907.92 949.66 915.2 1078.46 915.2"/>
        <polygon class="cls-6" points="1053 893.31 1052.75 886.03 949.41 886.03 949.66 893.31 1053 893.31"/>
        <polygon class="cls-6" points="1038.3 937.09 1038.05 929.81 1019.56 929.81 1019.81 937.09 1038.3 937.09"/>
        <polygon class="cls-6" points="1010.57 872.21 1010.32 864.93 949.41 864.93 949.66 872.21 1010.57 872.21"/>
        <polygon class="cls-6" points="1078.46 850.31 1078.2 843.04 949.41 843.04 949.66 850.31 1078.46 850.31"/>
        <polygon class="cls-6" points="1037.43 872.21 1037.17 864.93 1018.69 864.93 1018.95 872.21 1037.43 872.21"/>
      </g>
      <g>
        <polygon class="cls-6" points="1010.57 1178.32 1010.32 1171.04 949.41 1171.04 949.66 1178.32 1010.57 1178.32"/>
        <polygon class="cls-6" points="1078.45 1156.42 1078.2 1149.15 949.41 1149.15 949.66 1156.42 1078.45 1156.42"/>
        <polygon class="cls-6" points="1053 1134.53 1052.75 1127.26 949.41 1127.26 949.66 1134.53 1053 1134.53"/>
        <polygon class="cls-6" points="1039.16 1178.32 1038.91 1171.04 1020.43 1171.04 1020.68 1178.32 1039.16 1178.32"/>
        <polygon class="cls-6" points="1010.57 1113.43 1010.32 1106.16 949.41 1106.16 949.66 1113.43 1010.57 1113.43"/>
        <polygon class="cls-6" points="1078.46 1091.54 1078.2 1084.27 949.41 1084.27 949.66 1091.54 1078.46 1091.54"/>
        <polygon class="cls-6" points="1053 1069.65 1052.75 1062.37 949.41 1062.37 949.66 1069.65 1053 1069.65"/>
        <polygon class="cls-6" points="1038.3 1113.43 1038.05 1106.16 1019.56 1106.16 1019.81 1113.43 1038.3 1113.43"/>
        <polygon class="cls-6" points="1010.57 1048.55 1010.32 1041.28 949.41 1041.28 949.66 1048.55 1010.57 1048.55"/>
        <polygon class="cls-6" points="1078.46 1026.66 1078.2 1019.38 949.41 1019.38 949.66 1026.66 1078.46 1026.66"/>
        <polygon class="cls-6" points="1037.43 1048.55 1037.17 1041.28 1018.69 1041.28 1018.95 1048.55 1037.43 1048.55"/>
      </g>
      <g>
        <polygon class="cls-6" points="1208.38 1023.07 1208.12 1015.79 1104.79 1015.79 1105.04 1023.07 1208.38 1023.07"/>
        <polygon class="cls-6" points="1165.95 1001.97 1165.7 994.7 1104.79 994.7 1105.04 1001.97 1165.95 1001.97"/>
        <g>
          <polygon class="cls-5" points="1233.83 980.08 1233.58 972.8 1104.79 972.8 1105.04 980.08 1233.83 980.08"/>
          <path class="cls-5" d="m1234.43,980.47h-129.94l-.29-8.07h129.95l.29,8.07Zm-128.82-.79h127.63l-.22-6.48h-127.63l.22,6.48Z"/>
        </g>
        <polygon class="cls-6" points="1208.38 1088.56 1208.12 1081.28 1104.79 1081.28 1105.04 1088.56 1208.38 1088.56"/>
        <polygon class="cls-6" points="1165.95 1067.46 1165.7 1060.19 1104.79 1060.19 1105.04 1067.46 1165.95 1067.46"/>
        <polygon class="cls-6" points="1233.83 1045.57 1233.58 1038.29 1104.79 1038.29 1105.04 1045.57 1233.83 1045.57"/>
        <polygon class="cls-6" points="1208.38 958.19 1208.12 950.91 1104.79 950.91 1105.04 958.19 1208.38 958.19"/>
        <polygon class="cls-6" points="1194.54 1001.97 1194.29 994.7 1175.81 994.7 1176.06 1001.97 1194.54 1001.97"/>
        <polygon class="cls-6" points="1208.38 1154.82 1208.12 1147.55 1104.79 1147.55 1105.04 1154.82 1208.38 1154.82"/>
        <polygon class="cls-6" points="1165.95 1133.72 1165.7 1126.45 1104.79 1126.45 1105.04 1133.72 1165.95 1133.72"/>
        <polygon class="cls-6" points="1233.83 1111.83 1233.58 1104.55 1104.79 1104.55 1105.04 1111.83 1233.83 1111.83"/>
        <polygon class="cls-6" points="1233.83 1177.32 1233.58 1170.04 1104.79 1170.04 1105.04 1177.32 1233.83 1177.32"/>
        <polygon class="cls-6" points="1194.54 1133.72 1194.29 1126.45 1175.81 1126.45 1176.06 1133.72 1194.54 1133.72"/>
        <polygon class="cls-6" points="1165.95 937.09 1165.7 929.81 1104.79 929.81 1105.04 937.09 1165.95 937.09"/>
        <polygon class="cls-6" points="1233.83 915.2 1233.58 907.92 1104.79 907.92 1105.04 915.2 1233.83 915.2"/>
        <polygon class="cls-6" points="1208.38 893.31 1208.12 886.03 1104.79 886.03 1105.04 893.31 1208.38 893.31"/>
        <polygon class="cls-6" points="1193.67 937.09 1193.42 929.81 1174.94 929.81 1175.19 937.09 1193.67 937.09"/>
        <polygon class="cls-6" points="1165.95 872.21 1165.7 864.93 1104.79 864.93 1105.04 872.21 1165.95 872.21"/>
        <polygon class="cls-6" points="1233.83 850.31 1233.58 843.04 1104.79 843.04 1105.04 850.31 1233.83 850.31"/>
        <polygon class="cls-6" points="1192.81 872.21 1192.56 864.93 1174.07 864.93 1174.32 872.21 1192.81 872.21"/>
      </g>
    </g>
  </g>
  <g>
    <g>
      <g>
        <path class="cls-35" d="m1710.73,1225.78c3.01,0,5.75-2.02,6.53-5.07l46.46-240.49c.93-3.61-1.25-7.29-4.85-8.21-3.62-.94-7.29,1.25-8.21,4.86l-46.46,240.49c-.93,3.61,1.25,7.29,4.86,8.21.56.14,1.12.21,1.68.21Z"/>
        <path class="cls-15" d="m1717.48,1225.78c3,0,5.75-2.02,6.53-5.07l46.46-240.49c.93-3.61-1.25-7.29-4.85-8.21-3.63-.94-7.29,1.25-8.21,4.86l-46.46,240.49c-.93,3.61,1.25,7.29,4.85,8.21.57.14,1.13.21,1.68.21Z"/>
      </g>
      <g>
        <path class="cls-28" d="m1901.7,1225.78c3,0,5.75-2.02,6.53-5.07l46.46-240.49c.92-3.61-1.25-7.29-4.86-8.21-3.62-.94-7.28,1.25-8.2,4.86l-46.46,240.49c-.92,3.61,1.26,7.29,4.86,8.21.57.14,1.13.21,1.68.21Z"/>
        <path class="cls-15" d="m1908.44,1225.78c3.01,0,5.75-2.02,6.54-5.07l46.46-240.49c.92-3.61-1.25-7.29-4.86-8.21-3.62-.94-7.28,1.25-8.21,4.86l-46.46,240.49c-.92,3.61,1.26,7.29,4.86,8.21.57.14,1.12.21,1.68.21Z"/>
      </g>
      <polygon class="cls-26" points="1560.5 1227.64 1576.86 1227.64 1521.75 1522.05 1505.39 1522.05 1560.5 1227.64"/>
      <rect class="cls-27" x="1495.96" y="1212.72" width="188.27" height="19.37" transform="translate(3180.19 2444.81) rotate(180)"/>
      <polygon class="cls-15" points="1722.55 1227.64 1706.19 1227.64 1761.29 1522.05 1777.65 1522.05 1722.55 1227.64"/>
      <polygon class="cls-15" points="1914.97 1227.64 1898.62 1227.64 1953.72 1522.05 1970.08 1522.05 1914.97 1227.64"/>
      <polygon class="cls-32" points="1752.94 1227.64 1769.29 1227.64 1714.19 1522.05 1697.83 1522.05 1752.94 1227.64"/>
      <rect class="cls-15" x="1684.23" y="1212.72" width="250.12" height="19.37" transform="translate(3618.58 2444.81) rotate(180)"/>
      <path class="cls-15" d="m1739.86,1034.72h240.09c5.5,0,10.3-3.76,11.61-9.11l15.76-64.5c1.84-7.53-3.86-14.79-11.61-14.79h-240.09c-5.5,0-10.3,3.76-11.61,9.11l-15.76,64.5c-1.84,7.53,3.85,14.79,11.61,14.79Z"/>
      <path class="cls-30" d="m1728.08,1034.72h240.09c5.5,0,10.3-3.76,11.61-9.11l15.76-64.5c1.84-7.53-3.86-14.79-11.61-14.79h-240.09c-5.5,0-10.3,3.76-11.61,9.11l-15.76,64.5c-1.84,7.53,3.86,14.79,11.61,14.79Z"/>
    </g>
    <g>
      <path class="cls-4" d="m1761.44,735.67c29.47,7.93,66.39,32.53,38.71,62.75-27.2,29.71-80.1-17.17-80.1-17.17"/>
      <path class="cls-4" d="m1738.91,795.19c-17.42,25.06-53.03,51.51-72.14,15.26-18.78-35.63,43.2-69.6,43.2-69.6"/>
      <path class="cls-4" d="m1739.46,682.88c29.47,7.93,66.39,32.53,38.71,62.75-27.2,29.71-80.1-17.17-80.1-17.17"/>
      <path class="cls-4" d="m1716.71,669.81c24.21-18.58,66.18-32.96,73.36,7.38,7.07,39.66-62.31,53.18-62.31,53.18"/>
      <path class="cls-10" d="m1689.05,866.41c-14.05,31.61-117.42,135.69-135.48,154.58-21.76,22.78-54.86,13.19-51.09-15.4,3.22-24.37,112.31-172.61,127.53-184.54,27.48-21.54,76.62,5.82,59.04,45.36Z"/>
      <path class="cls-5" d="m1618.43,975.99c30.29-32.73,63.5-93.56,70.62-109.58,17.58-39.55-31.56-66.91-59.04-45.36-8.57,6.72-55.72,58.72-88.15,105.42,0,17.11,43.32,49.52,76.57,49.52Z"/>
      <path class="cls-5" d="m1747.49,745.07s-8.54,54.99,15.9,54.99,69.74,5.21,85.76,26.45c16.03,21.24,49.96,165.65,32.86,304.04,0,0-176.86,10.15-259.16-71.07,0,0-28.84-184.15-5.08-222.02,19.82-31.58,69.24-30.14,69.24-30.14,0,0,13.65-12.01,8.25-38.13-13.2-63.77,52.23-24.14,52.23-24.14Z"/>
      <path class="cls-34" d="m1746.62,752.62c.4-4.56.87-7.55.87-7.55,0,0-52.6-31.86-53.95,7.55h53.08Z"/>
      <path class="cls-12" d="m1849.15,826.52c-3.3-4.37-7.84-8.05-13.18-11.16l-41.36,188.43-171.76,55.7c82.29,81.22,259.16,71.07,259.16,71.07,17.1-138.4-16.83-282.8-32.86-304.04Z"/>
      <path class="cls-10" d="m1782.86,801c-18.43,34.62-51.68,54.23-81.67,45.34-17.21-5.09-30.2-18.64-37.53-36.64,13.06-2.68,23.35-2.37,23.35-2.37,0,0,13.64-12.01,8.24-38.13-13.2-63.78,52.24-24.14,52.24-24.14,0,0-8.55,54.99,15.89,54.99,5.59,0,12.28.27,19.47.94Z"/>
      <path class="cls-11" d="m1763.39,800.06c-24.44,0-15.89-54.99-15.89-54.99,0,0-3.37-2.04-8.42-4.45v25.54c0,35.01-28.39,63.4-63.4,63.4h0c6.89,7.93,15.48,13.8,25.52,16.78,29.99,8.88,63.23-10.72,81.67-45.34-7.18-.67-13.88-.94-19.47-.94Z"/>
      <rect x="1650.16" y="701.98" width="20.05" height="2.01"/>
      <path class="cls-10" d="m1661.6,663.94v76.54c0,22.58,19.29,40.88,43.08,40.88h0c23.79,0,43.08-18.3,43.08-40.88v-1.87s24.65-1.74,24.65-26.78-16.43-14.83-16.43-14.83v-33.06h-94.38Z"/>
      <path class="cls-11" d="m1755.98,697v-33.06h-33.51c0,.24.04.49.04.73v86.64c0,15.14-14.16,27.43-28.86,26.92-4.57-.16-8.77-1.45-12.44-3.55,6.76,4.2,14.8,6.69,23.48,6.69,23.79,0,43.08-18.3,43.08-40.88v-1.87s24.65-1.74,24.65-26.78-16.43-14.83-16.43-14.83Z"/>
      <path class="cls-4" d="m1755.37,702.83s-7.21,22.44-12.02-4.81c-4.81-27.25-13.23-26.05-43.68-24.05-30.45,2.01-75.62-10.38-56.9-46.89s81.35-9.62,81.35-9.62c0,0,47.69-14.43,55.71,23.24,8.01,37.67-24.45,62.12-24.45,62.12Z"/>
      <g>
        <path class="cls-10" d="m1282.39,1195.92l-10.48-30.76c-33.2,16.22-64.1,20.7-60.49-31.31,1.66-23.96-26.7-31.9-26.7-31.9l-8.62,124.35s4.17,12.72,34.5-3.18c32.94-17.27,71.8-27.21,71.8-27.21Z"/>
        <path class="cls-16" d="m1205.92,1183.87c7.79-7.32,20.98,2.31,22.37-8.68-11.67-3.19-18.69-15.02-16.86-41.34,1.66-23.96-26.7-31.9-26.7-31.9l-8.62,124.35s3.92,11.94,31.74-1.77c.9-13.04-13.68-29.61-1.92-40.65Z"/>
      </g>
      <g>
        <path class="cls-17" d="m1879.48,1130.96c0,65.11-67.94,107.89-146.49,86.01-78.55-21.88-79.81-84.28-200.84-116.34,0,0-39.81-63.07,11.88-75.89,51.7-12.82,335.44,106.22,335.44,106.22Z"/>
        <path class="cls-17" d="m1531.62,1029.21s-244.18,123.59-284.92,138.65c0,0,8.21,40.77,28.2,74.1,0,0,253.66-93.87,279.49-110.99,54-35.78-22.78-101.75-22.78-101.75Z"/>
      </g>
      <g>
        <g>
          <rect class="cls-13" x="1375.72" y="1026.79" width="271.65" height="14.34"/>
          <path class="cls-13" d="m1647.37,1041.13h125.04v-8.07c0-3.47-2.81-6.27-6.26-6.27h-118.78v14.34Z"/>
        </g>
        <g>
          <path class="cls-13" d="m1383.37,1026.79h270.57l-35.62-166.59c-1.04-4.87-5.1-8.31-9.8-8.31h-243.68c-9.67,0-16.84,9.55-14.69,19.58l33.21,155.32Z"/>
          <path class="cls-23" d="m1376.79,1026.79h270.57l-35.62-166.59c-1.04-4.87-5.1-8.31-9.79-8.31h-248.82c-7.04,0-12.26,6.96-10.7,14.26l34.35,160.65Z"/>
        </g>
        <polygon class="cls-18" points="1483.03 851.88 1406.82 1026.79 1441.69 1026.79 1520.72 851.88 1483.03 851.88"/>
        <polygon class="cls-18" points="1539.97 851.88 1463.78 1026.79 1477.35 1026.79 1556.39 851.88 1539.97 851.88"/>
      </g>
      <path class="cls-17" d="m1732.99,1216.98s-167.9-4.26-221.04-15.37c-25.62-5.36-112.02-40.77-78.77-91.1,33.22-50.29,187.69,9.9,299.82,106.47Z"/>
      <path class="cls-16" d="m1448.46,1097.76c21.81.47,39.5,13.99,58.92,24.18,9.94,5.22,80.22,39.82,75.57,50.19-7.26,16.18-50.41,16.03-83.05,14.15-3,3.42-6.82,6.12-11.12,7.83,9.34,3.78,17.67,6.34,23.18,7.49,53.14,11.11,221.04,15.37,221.04,15.37-99.87-86.01-231.82-143.82-284.53-119.21Z"/>
      <g>
        <path class="cls-10" d="m1304.49,1491.15c28.68-9.46,42.49-55.47,49.13-80.13l37.47,14.33s-22.32,42.15-20.6,70.86c1.72,28.71-6.44,26.01-6.44,26.01h-97.61s9.35-21.62,38.04-31.07Z"/>
        <path class="cls-16" d="m1304.49,1491.15c8.66-2.86,15.95-9.05,22.12-16.98,3.99-5.59,23.43.58,26.65,11.41,0,0,7.88,5.67,17.19,4.8-.02,1.99-.07,3.97.04,5.83,1.72,28.71-6.44,26.01-6.44,26.01h-97.61s9.35-21.62,38.04-31.07Z"/>
      </g>
      <path class="cls-17" d="m1428.03,1120.69s-69.37,236.14-93.95,308.82c0,0,35.8,22.98,63.06,21.37,0,0,50.57-94.03,67.4-129.3,33.14-69.44,59.63-113.97,32.79-153.37-18.95-27.8-69.29-47.52-69.29-47.52Z"/>
      <g>
        <path class="cls-10" d="m1841.4,818.91c27.37,21.13,104.02,146.22,118.09,168.24,16.98,26.53-.17,56.43-27.07,45.98-22.91-8.9-141.1-149.99-149.09-167.6-14.42-31.8,23.8-73.07,58.06-46.62Z"/>
        <path class="cls-5" d="m1912.36,905.95c-25.4-38.54-56.55-75.91-70.96-87.04-34.26-26.45-72.48,14.82-58.06,46.62,3.6,7.94,27.91,46.46,57.48,81.18,35.91-6.56,68.4-34.49,71.54-40.76Z"/>
        <path class="cls-10" d="m1940.76,982.18c-43.2,4.76-168.11,59.27-194.15,53.13-26.03-6.14-48.04-23.75-59.77-6.57-11.97,17.53-7.81,35-.65,53.15,4.71,11.94,26.44,4.73,53.93-6.69,27.56-11.46,155.71-19.63,197.98-30.56,41.9-10.83,31.88-65.67,2.65-62.46Z"/>
        <path class="cls-10" d="m1911.64,988.63l2.74,5.28s38.06,19.16,38.85,18.11c.79-1.06,7.66-14.54,7.66-14.54,0,0-5.81-14.8-11.36-21.54-5.55-6.74-37.9,12.69-37.9,12.69Z"/>
      </g>
      <path d="m1715.42,726.06c-13.32,0-19.53-13.98-19.53-23.42,0-8.73,6.93-13.53,19.53-13.53s19.52,4.81,19.52,13.53c0,9.44-6.21,23.42-19.52,23.42Zm0-34.94c-8,0-17.52,2-17.52,11.52,0,8.63,5.57,21.41,17.52,21.41s17.52-12.78,17.52-21.41c0-9.52-9.53-11.52-17.52-11.52Z"/>
      <path d="m1668.68,726.06c-13.32,0-19.52-13.98-19.52-23.42,0-8.73,6.93-13.53,19.52-13.53s19.53,4.81,19.53,13.53c0,9.44-6.21,23.42-19.53,23.42Zm0-34.94c-7.99,0-17.52,2-17.52,11.52,0,8.63,5.57,21.41,17.52,21.41s17.52-12.78,17.52-21.41c0-9.52-9.53-11.52-17.52-11.52Z"/>
      <rect x="1687.21" y="699.74" width="9.82" height="2.01"/>
      <rect x="1733.14" y="701.98" width="20.05" height="2.01"/>
    </g>
  </g>
  <g>
    <rect class="cls-16" x="1116.88" y="322.07" width="7.15" height="14.3"/>
    <path class="cls-16" d="m1124.03,292.86h-7.15v-29.22h7.15v29.22Zm0-58.43h-7.15v-29.22h7.15v29.22Zm0-58.43h-7.15v-29.21h7.15v29.21Z"/>
    <polygon class="cls-16" points="1124.03 117.56 1116.88 117.56 1116.88 99.69 1134.76 99.69 1134.76 106.84 1124.03 106.84 1124.03 117.56"/>
    <path class="cls-16" d="m1529.8,106.84h-28.22v-7.15h28.22v7.15Zm-56.44,0h-28.22v-7.15h28.22v7.15Zm-56.43,0h-28.22v-7.15h28.22v7.15Zm-56.44,0h-28.22v-7.15h28.22v7.15Zm-56.44,0h-28.22v-7.15h28.22v7.15Zm-56.44,0h-28.22v-7.15h28.22v7.15Zm-56.44,0h-28.22v-7.15h28.22v7.15Z"/>
    <polygon class="cls-16" points="1575.9 117.56 1568.75 117.56 1568.75 106.84 1558.02 106.84 1558.02 99.69 1575.9 99.69 1575.9 117.56"/>
    <path class="cls-16" d="m1575.9,270.46h-7.15v-25.48h7.15v25.48Zm0-50.96h-7.15v-25.48h7.15v25.48Zm0-50.96h-7.15v-25.48h7.15v25.48Z"/>
    <rect class="cls-16" x="1568.75" y="295.94" width="7.15" height="14.3"/>
  </g>
  <g>
    <rect class="cls-16" x="777.71" y="696.17" width="14.3" height="7.15"/>
    <polygon class="cls-16" points="742.92 714.05 735.77 714.05 735.77 696.17 753.65 696.17 753.65 703.32 742.92 703.32 742.92 714.05"/>
    <path class="cls-16" d="m742.92,1352.4h-7.15v-29.02h7.15v29.02Zm0-58.03h-7.15v-29.02h7.15v29.02Zm0-58.03h-7.15v-29.02h7.15v29.02Zm0-58.03h-7.15v-29.01h7.15v29.01Zm0-58.03h-7.15v-29.02h7.15v29.02Zm0-58.03h-7.15v-29.02h7.15v29.02Zm0-58.03h-7.15v-29.02h7.15v29.02Zm0-58.03h-7.15v-29.01h7.15v29.01Zm0-58.03h-7.15v-29.02h7.15v29.02Zm0-58.03h-7.15v-29.02h7.15v29.02Zm0-58.03h-7.15v-29.02h7.15v29.02Z"/>
    <polygon class="cls-16" points="753.65 1399.29 735.77 1399.29 735.77 1381.42 742.92 1381.42 742.92 1392.14 753.65 1392.14 753.65 1399.29"/>
    <path class="cls-16" d="m1043.38,1399.29h-28.97v-7.15h28.97v7.15Zm-57.95,0h-28.97v-7.15h28.97v7.15Zm-57.94,0h-28.97v-7.15h28.97v7.15Zm-57.94,0h-28.98v-7.15h28.98v7.15Zm-57.95,0h-28.97v-7.15h28.97v7.15Z"/>
    <polygon class="cls-16" points="1090.23 1399.29 1072.35 1399.29 1072.35 1392.14 1083.08 1392.14 1083.08 1381.42 1090.23 1381.42 1090.23 1399.29"/>
    <path class="cls-16" d="m1090.23,1350.3h-7.15v-31.12h7.15v31.12Zm0-62.23h-7.15v-31.11h7.15v31.11Z"/>
    <rect class="cls-16" x="1083.08" y="1211.54" width="7.15" height="14.3"/>
  </g>
  <g>
    <g>
      <path class="cls-3" d="m1799.55,195.96v310.4c0,6.13-4.99,11.12-11.12,11.12h-432.23c-6.13,0-11.1-4.99-11.1-11.12V195.98c0-7.84,6.35-14.19,14.18-14.19h426.08c7.83,0,14.19,6.35,14.19,14.18Z"/>
      <path class="cls-16" d="m1799.54,230.64h-454.44v-34.67c0-7.83,6.35-14.19,14.19-14.19h426.07c7.83,0,14.18,6.35,14.18,14.19v34.68Z"/>
      <g>
        <path class="cls-13" d="m1423.27,206.21c0-4.14,3.36-7.51,7.5-7.51s7.51,3.36,7.51,7.51-3.36,7.5-7.51,7.5-7.5-3.36-7.5-7.5Z"/>
        <path class="cls-5" d="m1394.38,206.21c0-4.14,3.36-7.51,7.51-7.51s7.51,3.36,7.51,7.51-3.37,7.5-7.51,7.5-7.51-3.36-7.51-7.5Z"/>
        <path class="cls-6" d="m1365.51,206.21c0-4.14,3.36-7.51,7.5-7.51s7.51,3.36,7.51,7.51-3.36,7.5-7.51,7.5-7.5-3.36-7.5-7.5Z"/>
      </g>
      <polygon class="cls-6" points="1763.78 200.72 1767.5 197.01 1772.8 202.32 1778.11 197.01 1781.82 200.72 1776.52 206.03 1781.82 211.34 1778.11 215.05 1772.8 209.75 1767.5 215.05 1763.78 211.34 1769.09 206.03 1763.78 200.72"/>
    </g>
    <g>
      <g>
        <polygon class="cls-6" points="1428.75 396.98 1428.52 390.29 1372.48 390.29 1372.72 396.98 1428.75 396.98"/>
        <polygon class="cls-6" points="1491.2 376.84 1490.97 370.15 1372.48 370.15 1372.72 376.84 1491.2 376.84"/>
        <g>
          <polygon class="cls-5" points="1467.79 356.7 1467.55 350 1372.48 350 1372.72 356.7 1467.79 356.7"/>
          <path class="cls-5" d="m1468.33,357.06h-96.13l-.27-7.42h96.14l.26,7.42Zm-95.1-.73h94.01l-.21-5.97h-94.01l.21,5.97Z"/>
        </g>
        <polygon class="cls-6" points="1455.06 396.98 1454.83 390.29 1437.82 390.29 1438.06 396.98 1455.06 396.98"/>
        <polygon class="cls-6" points="1428.75 337.29 1428.52 330.59 1372.48 330.59 1372.72 337.29 1428.75 337.29"/>
        <polygon class="cls-6" points="1491.21 317.15 1490.97 310.45 1372.48 310.45 1372.72 317.15 1491.21 317.15"/>
        <polygon class="cls-6" points="1467.79 297 1467.55 290.31 1372.48 290.31 1372.72 297 1467.79 297"/>
        <polygon class="cls-6" points="1454.26 337.29 1454.03 330.59 1437.02 330.59 1437.25 337.29 1454.26 337.29"/>
        <polygon class="cls-6" points="1428.75 277.59 1428.52 270.9 1372.48 270.9 1372.72 277.59 1428.75 277.59"/>
        <polygon class="cls-6" points="1491.21 257.45 1490.97 250.76 1372.48 250.76 1372.72 257.45 1491.21 257.45"/>
        <polygon class="cls-6" points="1453.46 277.59 1453.23 270.9 1436.22 270.9 1436.46 277.59 1453.46 277.59"/>
      </g>
      <g>
        <polygon class="cls-6" points="1428.75 499.53 1428.52 492.84 1372.48 492.84 1372.72 499.53 1428.75 499.53"/>
        <polygon class="cls-6" points="1491.21 479.39 1490.97 472.69 1372.48 472.69 1372.72 479.39 1491.21 479.39"/>
        <polygon class="cls-6" points="1467.79 459.25 1467.55 452.55 1372.48 452.55 1372.72 459.25 1467.79 459.25"/>
        <polygon class="cls-6" points="1454.26 499.53 1454.03 492.84 1437.02 492.84 1437.25 499.53 1454.26 499.53"/>
        <polygon class="cls-6" points="1428.75 439.84 1428.52 433.14 1372.48 433.14 1372.72 439.84 1428.75 439.84"/>
        <polygon class="cls-6" points="1491.21 419.69 1490.97 413 1372.48 413 1372.72 419.69 1491.21 419.69"/>
        <polygon class="cls-6" points="1453.46 439.84 1453.23 433.14 1436.22 433.14 1436.46 439.84 1453.46 439.84"/>
      </g>
      <g>
        <polygon class="cls-6" points="1610.74 416.39 1610.51 409.7 1515.43 409.7 1515.67 416.39 1610.74 416.39"/>
        <polygon class="cls-6" points="1571.71 396.98 1571.48 390.29 1515.43 390.29 1515.67 396.98 1571.71 396.98"/>
        <g>
          <polygon class="cls-5" points="1634.16 376.84 1633.93 370.15 1515.43 370.15 1515.67 376.84 1634.16 376.84"/>
          <path class="cls-5" d="m1634.71,377.21h-119.55l-.26-7.42h119.56l.26,7.42Zm-118.52-.73h117.43l-.21-5.97h-117.43l.21,5.97Z"/>
        </g>
        <polygon class="cls-6" points="1610.74 476.65 1610.51 469.95 1515.43 469.95 1515.67 476.65 1610.74 476.65"/>
        <polygon class="cls-6" points="1571.71 457.23 1571.48 450.54 1515.43 450.54 1515.67 457.23 1571.71 457.23"/>
        <polygon class="cls-6" points="1634.16 437.09 1633.93 430.4 1515.43 430.4 1515.67 437.09 1634.16 437.09"/>
        <polygon class="cls-6" points="1610.74 356.7 1610.51 350 1515.43 350 1515.67 356.7 1610.74 356.7"/>
        <polygon class="cls-6" points="1598.01 396.98 1597.78 390.29 1580.77 390.29 1581.01 396.98 1598.01 396.98"/>
        <polygon class="cls-6" points="1634.16 498.06 1633.93 491.36 1515.43 491.36 1515.67 498.06 1634.16 498.06"/>
        <polygon class="cls-6" points="1777.12 498.06 1776.88 491.36 1658.39 491.36 1658.62 498.06 1777.12 498.06"/>
        <polygon class="cls-6" points="1571.71 337.29 1571.48 330.59 1515.43 330.59 1515.67 337.29 1571.71 337.29"/>
        <polygon class="cls-6" points="1634.16 317.15 1633.93 310.45 1515.43 310.45 1515.67 317.15 1634.16 317.15"/>
        <polygon class="cls-6" points="1610.74 297 1610.51 290.31 1515.43 290.31 1515.67 297 1610.74 297"/>
        <polygon class="cls-6" points="1597.22 337.29 1596.98 330.59 1579.98 330.59 1580.21 337.29 1597.22 337.29"/>
        <polygon class="cls-6" points="1571.71 277.59 1571.48 270.9 1515.43 270.9 1515.67 277.59 1571.71 277.59"/>
        <polygon class="cls-6" points="1634.16 257.45 1633.93 250.76 1515.43 250.76 1515.67 257.45 1634.16 257.45"/>
        <polygon class="cls-6" points="1596.42 277.59 1596.18 270.9 1579.18 270.9 1579.41 277.59 1596.42 277.59"/>
      </g>
      <g>
        <polygon class="cls-6" points="1714.66 396.98 1714.43 390.29 1658.39 390.29 1658.62 396.98 1714.66 396.98"/>
        <polygon class="cls-6" points="1777.12 376.84 1776.89 370.15 1658.39 370.15 1658.62 376.84 1777.12 376.84"/>
        <polygon class="cls-6" points="1753.7 356.7 1753.47 350 1658.39 350 1658.62 356.7 1753.7 356.7"/>
        <polygon class="cls-6" points="1740.97 396.98 1740.74 390.29 1723.73 390.29 1723.96 396.98 1740.97 396.98"/>
        <polygon class="cls-6" points="1714.67 337.29 1714.43 330.59 1658.39 330.59 1658.62 337.29 1714.67 337.29"/>
        <polygon class="cls-6" points="1777.12 317.15 1776.89 310.45 1658.39 310.45 1658.62 317.15 1777.12 317.15"/>
        <polygon class="cls-6" points="1753.7 297 1753.47 290.31 1658.39 290.31 1658.62 297 1753.7 297"/>
        <polygon class="cls-6" points="1740.17 337.29 1739.94 330.59 1722.93 330.59 1723.17 337.29 1740.17 337.29"/>
        <polygon class="cls-6" points="1714.66 475.4 1714.43 468.71 1658.39 468.71 1658.62 475.4 1714.66 475.4"/>
        <polygon class="cls-6" points="1777.12 455.26 1776.89 448.57 1658.39 448.57 1658.62 455.26 1777.12 455.26"/>
        <polygon class="cls-6" points="1753.7 435.12 1753.47 428.43 1658.39 428.43 1658.62 435.12 1753.7 435.12"/>
        <polygon class="cls-6" points="1740.97 475.4 1740.74 468.71 1723.73 468.71 1723.96 475.4 1740.97 475.4"/>
        <polygon class="cls-6" points="1714.67 415.71 1714.43 409.02 1658.39 409.02 1658.62 415.71 1714.67 415.71"/>
        <polygon class="cls-6" points="1740.17 415.71 1739.94 409.02 1722.93 409.02 1723.17 415.71 1740.17 415.71"/>
        <g>
          <polygon class="cls-5" points="1714.66 277.59 1714.43 270.9 1658.39 270.9 1658.62 277.59 1714.66 277.59"/>
          <path class="cls-5" d="m1715.21,277.96h-57.1l-.26-7.42h57.1l.26,7.42Zm-56.06-.73h54.98l-.21-5.96h-54.98l.21,5.96Z"/>
        </g>
        <polygon class="cls-6" points="1777.12 257.45 1776.88 250.76 1658.39 250.76 1658.62 257.45 1777.12 257.45"/>
        <g>
          <polygon class="cls-5" points="1739.38 277.59 1739.14 270.9 1722.13 270.9 1722.37 277.59 1739.38 277.59"/>
          <path class="cls-5" d="m1739.92,277.96h-18.07l-.26-7.42h18.07l.26,7.42Zm-17.03-.73h15.94l-.21-5.96h-15.94l.21,5.96Z"/>
        </g>
      </g>
    </g>
  </g>
  <g>
    <g>
      <path class="cls-5" d="m929.82,1520.68h94.67c16.16,0,29.26-13.1,29.26-29.26h0c0-16.16-13.1-29.25-29.26-29.25h-94.67v58.51Z"/>
      <path class="cls-12" d="m1053.56,1488.16c-1.63-14.62-14.02-25.99-29.08-25.99h-94.67v22.95c11.34,4.4,24.16,9.55,28.3,3.06,4.76-7.47,20.49-19.24,20.49-19.24,0,0,30.38-.21,51.02-.21s23.87,19.09,23.93,19.44Z"/>
      <g>
        <path class="cls-22" d="m791.75,1514.83h169.57c13.16,0,23.83-10.67,23.83-23.83h0c0-13.15-10.67-23.82-23.83-23.82h-169.57v47.65Z"/>
        <path class="cls-12" d="m781.72,1510.64h178.18c10.6,0,19.22-8.62,19.22-19.22s-8.62-19.22-19.22-19.22h-178.18v-10.03h178.18c16.16,0,29.26,13.1,29.26,29.25s-13.1,29.26-29.26,29.26h-178.18v-10.03Z"/>
      </g>
    </g>
    <g>
      <path class="cls-31" d="m912.54,1379h73.32c12.51,0,22.66-10.15,22.66-22.66h0c0-12.52-10.15-22.66-22.66-22.66h-73.32v45.32Z"/>
      <g>
        <path class="cls-19" d="m805.61,1374.47h131.32c10.19,0,18.45-8.26,18.45-18.45h0c0-10.19-8.26-18.45-18.45-18.45h-131.32v36.9Z"/>
        <path class="cls-16" d="m797.84,1371.23h138c8.2,0,14.89-6.68,14.89-14.89s-6.68-14.89-14.89-14.89h-138v-7.77h138c12.51,0,22.65,10.14,22.65,22.66s-10.15,22.66-22.65,22.66h-138v-7.77Z"/>
      </g>
    </g>
    <g>
      <path class="cls-5" d="m903.59,1413.68h79.72c9.59,0,17.35-7.77,17.35-17.35h0c0-9.57-7.76-17.34-17.35-17.34h-79.72v34.69Z"/>
      <path class="cls-12" d="m1000.11,1400.63c.35-1.38.56-2.81.56-4.29,0-9.57-7.76-17.34-17.35-17.34h-79.72v8.04l19.42-1.98h59.76s15.23.02,17.34,15.58Z"/>
      <g>
        <path class="cls-20" d="m782.18,1410.21h128.5c7.8,0,14.12-6.33,14.12-14.13h0c0-7.8-6.32-14.12-14.12-14.12h-128.5v28.25Z"/>
        <path class="cls-12" d="m776.23,1407.74h133.61c6.28,0,11.4-5.12,11.4-11.4s-5.12-11.4-11.4-11.4h-133.61v-5.95h133.61c9.58,0,17.34,7.77,17.34,17.34s-7.76,17.35-17.34,17.35h-133.61v-5.95Z"/>
      </g>
    </g>
    <g>
      <path class="cls-29" d="m970.68,1462.16h-145.66c-13.39,0-24.24-10.86-24.24-24.24h0c0-13.39,10.85-24.24,24.24-24.24h145.66v48.48Z"/>
      <path class="cls-16" d="m825.02,1413.68c-13.39,0-24.24,10.85-24.24,24.24,0,.88.05,1.75.14,2.6.01-.04,7.01-16.48,26.59-16.67,19.61-.19,104.26,0,104.26,0l23.03-10.17h-129.78Z"/>
      <g>
        <path class="cls-21" d="m1029.63,1457.32h-85.05c-10.9,0-19.74-8.84-19.74-19.74h0c0-10.91,8.84-19.74,19.74-19.74h85.05v39.48Z"/>
        <path class="cls-16" d="m1037.94,1453.85h-92.2c-8.78,0-15.93-7.15-15.93-15.93s7.14-15.93,15.93-15.93h92.2v-8.31h-92.2c-13.39,0-24.23,10.85-24.23,24.24s10.84,24.24,24.23,24.24h92.2v-8.31Z"/>
      </g>
    </g>
  </g>
</svg>